<svg id="square" xmlns="http://www.w3.org/2000/svg" viewBox="0 0 200 200"><defs><style>.cls-1{fill:#fff;opacity:0.01;}.cls-2{fill:#272727;}.cls-3{fill:#ff1000;}</style></defs><title>logo-square-light</title><rect id="bg" class="cls-1" width="200" height="200"/><g id="mouse"><path class="cls-2" d="M157.85461,89.6445s5.8379,1.1821,7.1416.917a60.76247,60.76247,0,0,1,8.1533-.7427,15.052,15.052,0,0,1,2.7764.7661s-3.09769-2.6264-5.7119-1.8222c0,0,2.78119.0483,3.8046,0a9.83276,9.83276,0,0,1,3.1524,1.0034,6.65747,6.65747,0,0,0-6.6309-2.3238s4.2393-.6294,5.87011-.125c0,0-1.413-1.706-6.19621-.9985-1.8311.2705-7.7051.0586-7.2022.2476C164.23541,87.0258,163.36631,89.2812,157.85461,89.6445Z"/><path class="cls-2" d="M155.52351,75.9721s1.166,7.0489,2.3311,8.0532a12.68029,12.68029,0,0,0,6.2939,2.4541s-.706,3.6299-3.82029,3.6221c-1.37891-.0034-8.93751-1.728-8.93751-1.728S148.56451,79.271,155.52351,75.9721Z"/><path class="cls-2" d="M85.23542,109.0732c1.2632.0195,3.7984,1.5054,3.7984,1.5054s-2.2979-3.9981-7.9722-3.4341c0,0,5.2652-.46,7.2315.3003,0,0-1.6031-2.252-7.5435-1.7363-2.27341.1967-25.2749-1.5772-24.6709-1.3008,0,0,2.3506,3.6777,3.9819,4.6699,1.5948.9717,7.4541,1.8325,13.522,1.5674a2.6251,2.6251,0,0,0,.4111-.0166,73.43108,73.43108,0,0,1,10.0889-.2969,18.29173,18.29173,0,0,1,3.3545,1.1782,12.21371,12.21371,0,0,0-4.0527-2.5268C84.10562,109.0293,84.79942,109.0669,85.23542,109.0732Z"/><path class="cls-2" d="M146.88,29.03461s-14.21879-23.60981-29.16509-13.707C102.76862,25.228,128.92882,33.29441,146.88,29.03461Z"/><path class="cls-2" d="M141.43171,31.26851s-16.92769-22.5332-31.874-12.6304C94.61092,28.53851,127.77262,62.72111,141.43171,31.26851Z"/><path class="cls-2" d="M35.59772,80.4775s17.792-39.43159,37.9898-43.75979c20.1968-4.3281,46.1645,17.6963,54.8188,9.8106,8.65629-7.8872,11.542-23.2749,18.27449-24.7173,6.7324-1.4429,25.1025-9.8931,26.497-4.9463,1.3936,4.9463.35741,24.28709-12.0703,43.416-6.1172,9.41459-3.3662,36.11429-39.43159,42.34129-36.0669,6.2276-71.6514,2.2715-78.3838-1.04C36.55971,98.271,30.30871,90.7338,35.59772,80.4775Z"/><path class="cls-2" d="M38.13,97.9707s-13.4566,4.1059-4.5122,15.8203c8.94531,11.7138,45.04151,33.6089,74.03661,16.4482,28.99409-17.1601,33.89449-8.876,42.09569,1.7754,0,0-12.2598-7.6924-17.71-7.1011s-22.6113,18.9561-48.6474,17.4663c-26.0357-1.4897-88.6983-30.646-49.37891-51.2754C34.01381,91.1044,38.43221,91.1464,38.13,97.9707Z"/><path class="cls-3" d="M147.00791,33.06691s-2.9043-4.3702-.0381-6.2647c2.8662-1.8931,6.4483-.5596,7.1231.4897C156.02651,30.29591,148.97961,37.39991,147.00791,33.06691Z"/><path class="cls-2" d="M132.97272,29.54931s-16.0576-13.4024-21.22651-9.023c-5.168,4.3809,3.69141,19.23149,12.49611,19.23149C133.04792,39.7578,136.07531,31.95651,132.97272,29.54931Z"/><path class="cls-2" d="M172.10361,15.67621s-2.2637,2.4043-1.6728,3.9717C171.02451,21.2148,176.73451,19.30951,172.10361,15.67621Z"/><path class="cls-2" d="M156.40631,105.354s6.7129,1.6713,8.2129,1.2963a57.21444,57.21444,0,0,1,9.375-1.0502,14.9114,14.9114,0,0,1,3.19341,1.0834s-3.5625-3.7143-6.56841-2.5766c0,0,3.19831.0679,4.375,0s3.625,1.4184,3.625,1.4184a7.1443,7.1443,0,0,0-7.625-3.2856s4.875-.8901,6.75-.1772c0,0-1.625-2.4122-7.125-1.4122-2.10539.3829-7.79679-.062-8.28219.3506C159.32922,103.5566,162.74421,104.8398,156.40631,105.354Z"/><path class="cls-2" d="M155.57141,60.28071s-5.5918,28.96729-4.1133,30.82369c1.4814,1.8555,12.0312,9.7237,12.0312,9.7237s-1.4423,5.6933-5.03409,4.9765c-4.46881-.8916-23.21-5.6064-32.6778-4.019C125.77742,101.7856,130.07632,69.6152,155.57141,60.28071Z"/></g><g id="texte"><path class="cls-3" d="M20.98145,179.90137q-1.11694-2.87988-1.11573-9.2168a58.61813,58.61813,0,0,1,2.66407-17.7832,5.41384,5.41384,0,0,1,2.124-3.06055,7.49135,7.49135,0,0,1,4.13965-.97168,4.06924,4.06924,0,0,1,2.01611.35938,1.48883,1.48883,0,0,1,.57617,1.36816,27.45929,27.45929,0,0,1-1.08008,5.18457q-.72069,2.87988-1.15185,5.00391a49.70564,49.70564,0,0,0-.72022,5.292,38.95664,38.95664,0,0,1,4.64405-9.50391,21.84621,21.84621,0,0,1,5.54394-5.7959,9.74732,9.74732,0,0,1,5.36328-1.9082,4.64339,4.64339,0,0,1,3.56446,1.15137,5.12678,5.12678,0,0,1,1.04492,3.52832,45.629,45.629,0,0,1-1.36914,8.35254q-.57715,2.59131-.791,3.88769,3.59766-8.85644,7.99219-12.88769,4.38867-4.03272,8.207-4.03223,4.67871,0,4.67969,4.67969a57.80929,57.80929,0,0,1-1.584,10.15234,49.93372,49.93372,0,0,0-1.36718,8.2793q0,2.88135,2.08789,2.88086a5.62582,5.62582,0,0,0,3.41992-1.76465,57.7427,57.7427,0,0,0,5.293-5.72363,2.52251,2.52251,0,0,1,1.94336-1.00782,1.668,1.668,0,0,1,1.47656.86329,4.47311,4.47311,0,0,1,.53906,2.376,6.63,6.63,0,0,1-1.36719,4.46485,31.89594,31.89594,0,0,1-6.66015,6.26367,13.97225,13.97225,0,0,1-8.10156,2.44824,6.99829,6.99829,0,0,1-5.543-2.124,9.03455,9.03455,0,0,1-1.87305-6.15625,44.80536,44.80536,0,0,1,1.00977-7.2002,37.34722,37.34722,0,0,0,.93554-6.26367c0-.76758-.26562-1.15234-.793-1.15234q-.93456,0-2.66406,2.41211a35.53211,35.53211,0,0,0-3.45508,6.37207,51.81055,51.81055,0,0,0-2.80859,8.35156,11.007,11.007,0,0,1-1.83594,4.6084,4.31485,4.31485,0,0,1-3.34765,1.15234,3.81709,3.81709,0,0,1-3.56446-2.26855,11.75678,11.75678,0,0,1-1.1875-5.50782,62.2669,62.2669,0,0,1,.72071-7.91992q.57422-4.60693.57617-6.04785c0-.76758-.26563-1.15234-.793-1.15234q-1.08105,0-2.73633,2.59179a37.25348,37.25348,0,0,0-3.20361,6.624,63.54,63.54,0,0,0-2.48389,7.91992,11.25261,11.25261,0,0,1-1.83594,4.57226,4.14526,4.14526,0,0,1-3.27636,1.18848A3.93312,3.93312,0,0,1,20.98145,179.90137Z"/><path class="cls-3" d="M106.876,167.22852a4.46352,4.46352,0,0,1,.54,2.376,6.62516,6.62516,0,0,1-1.36817,4.46485,26.32,26.32,0,0,1-7.52295,5.97558,20.86325,20.86325,0,0,1-10.40429,2.73633q-7.56006,0-11.73633-4.10449T72.2085,167.44531a20.82316,20.82316,0,0,1,2.08789-9.25195,17.098,17.098,0,0,1,5.7959-6.80469,14.57728,14.57728,0,0,1,8.38867-2.51953,9.127,9.127,0,0,1,6.69531,2.4834,9.02632,9.02632,0,0,1,2.52051,6.73242,11.64246,11.64246,0,0,1-3.56446,8.53223q-3.564,3.564-12.05957,5.65136,1.79883,3.31349,6.83985,3.3125a15.74151,15.74151,0,0,0,7.37988-2.26855,24.36016,24.36016,0,0,0,7.16357-5.93945,2.52726,2.52726,0,0,1,1.94434-1.00782A1.66544,1.66544,0,0,1,106.876,167.22852Zm-24.11963-8.208a14.43942,14.43942,0,0,0-1.83594,7.48828v.14453a16.3565,16.3565,0,0,0,6.69629-3.02441,5.94309,5.94309,0,0,0,2.44824-4.67969,3.13031,3.13031,0,0,0-.75683-2.19629,2.64094,2.64094,0,0,0-2.05176-.82813Q84.59179,155.9248,82.75635,159.02051Z"/><path class="cls-2" d="M104.35547,178.78516a14.40351,14.40351,0,0,1-3.92334-10.54786,21.68938,21.68938,0,0,1,2.3042-10.2246,17.54615,17.54615,0,0,1,5.97558-6.76758,13.96507,13.96507,0,0,1,7.70411-2.376,8.03474,8.03474,0,0,1,6.15625,2.33984,8.437,8.437,0,0,1,2.19531,6.01172,9.3164,9.3164,0,0,1-1.332,5.11231,4.0031,4.0031,0,0,1-3.49121,2.08789,3.45757,3.45757,0,0,1-2.19629-.64844,2.154,2.154,0,0,1-.82813-1.7998,5.3338,5.3338,0,0,1,.14356-1.15137c.0957-.43262.168-.74414.21679-.93652a6.41313,6.41313,0,0,0,.35938-2.01563,2.04566,2.04566,0,0,0-.46777-1.44043,1.73216,1.73216,0,0,0-1.332-.50391,4.28926,4.28926,0,0,0-3.0957,1.47657,10.499,10.499,0,0,0-2.30469,3.99511,17.03126,17.03126,0,0,0-.86328,5.54395q0,8.354,7.27149,8.35254a12.8415,12.8415,0,0,0,6.37207-1.98047,25.97524,25.97524,0,0,0,6.73242-5.93945,2.5269,2.5269,0,0,1,1.94336-1.00782,1.66582,1.66582,0,0,1,1.47656.86329,4.47256,4.47256,0,0,1,.54,2.376,6.98118,6.98118,0,0,1-1.36816,4.46485,23.36713,23.36713,0,0,1-8.09961,6.44336,20.989,20.989,0,0,1-9.1084,2.26855Q108.27832,182.78125,104.35547,178.78516Z"/><path class="cls-2" d="M135.74707,182.63672a5.08407,5.08407,0,0,1-1.98047-3.8877,4.42874,4.42874,0,0,1,1.36817-3.24023,5.46941,5.46941,0,0,1,4.03222-1.36817,15.81646,15.81646,0,0,1,2.19629.18067q1.2583.18018,1.9082.25195a9.28966,9.28966,0,0,0-.82812-3.52832,17.70514,17.70514,0,0,0-1.9082-3.2041q-1.15284-1.54687-2.16016-2.7002a47.03825,47.03825,0,0,1-4.42773,7.05665,52.74031,52.74031,0,0,1-4.78809,5.32714,3.85569,3.85569,0,0,1-2.73633,1.29688,2.36345,2.36345,0,0,1-1.87207-.82813,3.02218,3.02218,0,0,1-.71973-2.05273,4.10558,4.10558,0,0,1,1.00782-2.66309l.93652-1.15234a93.21185,93.21185,0,0,0,5.97559-8.06445q1.22314-2.0874,2.87988-5.58008,1.65528-3.49072,3.24023-7.23535,1.36671-3.16846,5.6875-3.168a7.58118,7.58118,0,0,1,2.8086.35937,1.20313,1.20313,0,0,1,.792,1.15235,5.31921,5.31921,0,0,1-.28809,1.36816,10.47906,10.47906,0,0,1-.792,1.87207,10.26179,10.26179,0,0,0-1.2959,4.3916,4.7955,4.7955,0,0,0,.75586,2.376,26.8506,26.8506,0,0,0,2.33985,3.24023,45.6915,45.6915,0,0,1,3.49218,5.14844,9.3522,9.3522,0,0,1,1.1875,4.64356,19.53744,19.53744,0,0,1-.14355,2.01562q3.52734-1.3667,8.28027-7.27148a2.52691,2.52691,0,0,1,1.94336-1.00782,1.66581,1.66581,0,0,1,1.47656.86329,4.47256,4.47256,0,0,1,.54,2.376,6.98118,6.98118,0,0,1-1.36816,4.46485,21.95907,21.95907,0,0,1-6.876,6.084,19.53185,19.53185,0,0,1-8.09961,1.76367,10.23055,10.23055,0,0,1-6.84082,2.44824A8.44992,8.44992,0,0,1,135.74707,182.63672Z"/><path class="cls-2" d="M166.49023,182.63672a5.08405,5.08405,0,0,1-1.98046-3.8877,4.42873,4.42873,0,0,1,1.36816-3.24023,5.46943,5.46943,0,0,1,4.03223-1.36817,15.8167,15.8167,0,0,1,2.19629.18067q1.25829.18018,1.9082.25195a9.28986,9.28986,0,0,0-.82813-3.52832,17.704,17.704,0,0,0-1.9082-3.2041q-1.15283-1.54687-2.16016-2.7002a47.03745,47.03745,0,0,1-4.42773,7.05665,52.73911,52.73911,0,0,1-4.78809,5.32714,3.85565,3.85565,0,0,1-2.73632,1.29688,2.36344,2.36344,0,0,1-1.87207-.82813,3.02213,3.02213,0,0,1-.71973-2.05273,4.10562,4.10562,0,0,1,1.00781-2.66309l.93652-1.15234a93.20973,93.20973,0,0,0,5.97559-8.06445,46.45315,46.45315,0,0,0,2.62793-4.96778q1.33155-2.87841,3.49219-7.84765,1.36669-3.16846,5.6875-3.168a7.58112,7.58112,0,0,1,2.80859.35937,1.20312,1.20312,0,0,1,.792,1.15235,5.31952,5.31952,0,0,1-.28808,1.36816,10.47906,10.47906,0,0,1-.792,1.87207,10.26179,10.26179,0,0,0-1.2959,4.3916,4.7954,4.7954,0,0,0,.75586,2.376,26.84921,26.84921,0,0,0,2.33984,3.24023,45.69178,45.69178,0,0,1,3.49219,5.14844,9.35231,9.35231,0,0,1,1.1875,4.64356,12.23851,12.23851,0,0,1-1.40332,5.72363,11.43737,11.43737,0,0,1-3.92383,4.35644,10.25857,10.25857,0,0,1-5.76074,1.65625A8.44993,8.44993,0,0,1,166.49023,182.63672Z"/></g></svg>