<svg id="rect" xmlns="http://www.w3.org/2000/svg" viewBox="0 0 600 200"><defs><style>.cls-1{fill:#fff;opacity:0.01;}.cls-2{fill:#272727;}.cls-3{fill:#ff1000;}</style></defs><title>logo-rect-light</title><rect id="bg" class="cls-1" width="600" height="200"/><g id="mouse"><path class="cls-2" d="M181.855,111.961s5.8379,1.1821,7.1416.917a60.76254,60.76254,0,0,1,8.1533-.74271,15.05167,15.05167,0,0,1,2.7764.76611s-3.09769-2.6264-5.7119-1.8222c0,0,2.78119.0483,3.8046,0a9.8325,9.8325,0,0,1,3.1524,1.0034,6.65747,6.65747,0,0,0-6.6309-2.3238s4.2393-.6294,5.87011-.125c0,0-1.413-1.706-6.19621-.99851-1.8311.27051-7.7051.05861-7.2022.24761C188.23579,109.34229,187.36669,111.5977,181.855,111.961Z" transform="translate(0 0)"/><path class="cls-2" d="M179.52389,98.2886s1.166,7.0489,2.3311,8.0532a12.68029,12.68029,0,0,0,6.2939,2.4541s-.706,3.6299-3.82029,3.6221c-1.37891-.0034-8.93751-1.728-8.93751-1.728S172.56489,101.5875,179.52389,98.2886Z" transform="translate(0 0)"/><path class="cls-2" d="M109.2358,131.3897c1.2632.0195,3.7984,1.5054,3.7984,1.5054s-2.2979-3.9981-7.9722-3.4341c0,0,5.2652-.46,7.2315.30029,0,0-1.6031-2.252-7.5435-1.73629-2.27341.1967-25.2749-1.5772-24.6709-1.3008,0,0,2.3506,3.6777,3.9819,4.6699,1.5948.9717,7.4541,1.8325,13.522,1.5674a2.6251,2.6251,0,0,0,.4111-.0166,73.42949,73.42949,0,0,1,10.0889-.2969,18.29173,18.29173,0,0,1,3.3545,1.1782,12.21371,12.21371,0,0,0-4.0527-2.5268C108.106,131.3458,108.7998,131.3834,109.2358,131.3897Z" transform="translate(0 0)"/><path class="cls-2" d="M170.88039,51.3511S156.6616,27.74129,141.7153,37.6441C126.769,47.5445,152.9292,55.6109,170.88039,51.3511Z" transform="translate(0 0)"/><path class="cls-2" d="M165.43209,53.585s-16.92769-22.5332-31.874-12.6304C118.6113,50.855,151.773,85.0376,165.43209,53.585Z" transform="translate(0 0)"/><path class="cls-2" d="M59.5981,102.794s17.792-39.4316,37.9898-43.7598c20.1968-4.3281,46.1645,17.6963,54.8188,9.8106,8.65629-7.8872,11.542-23.2749,18.27449-24.7173,6.7324-1.4429,25.1025-9.8931,26.497-4.9463,1.3936,4.9463.35741,24.28709-12.0703,43.416-6.1172,9.4146-3.3662,36.1143-39.43159,42.3413-36.0669,6.2276-71.6514,2.2715-78.3838-1.04C60.56009,120.5875,54.30909,113.05029,59.5981,102.794Z" transform="translate(0 0)"/><path class="cls-2" d="M62.13039,120.2872s-13.4566,4.1059-4.5122,15.8203c8.94531,11.71379,45.04151,33.60889,74.03661,16.4482,28.99409-17.1601,33.89449-8.876,42.09569,1.7754,0,0-12.2598-7.6924-17.71-7.1011s-22.6113,18.95609-48.6474,17.46629c-26.0357-1.4897-88.6983-30.646-49.37891-51.27539C58.01419,113.4209,62.43259,113.4629,62.13039,120.2872Z" transform="translate(0 0)"/><path class="cls-3" d="M171.00829,55.3834s-2.9043-4.3702-.0381-6.2647c2.8662-1.8931,6.4483-.5596,7.1231.4897C180.02689,52.6124,172.98,59.7164,171.00829,55.3834Z" transform="translate(0 0)"/><path class="cls-2" d="M156.9731,51.8658s-16.0576-13.4024-21.22651-9.023c-5.168,4.3809,3.69141,19.23149,12.49611,19.23149C157.0483,62.07429,160.0757,54.273,156.9731,51.8658Z" transform="translate(0 0)"/><path class="cls-2" d="M196.104,37.9927s-2.2637,2.4043-1.6728,3.9717C195.02489,43.53129,200.73489,41.626,196.104,37.9927Z" transform="translate(0 0)"/><path class="cls-2" d="M180.40669,127.6705s6.7129,1.6713,8.2129,1.2963a57.21335,57.21335,0,0,1,9.375-1.0502A14.9114,14.9114,0,0,1,201.188,129s-3.5625-3.7143-6.56841-2.5766c0,0,3.19831.06789,4.375,0s3.625,1.4184,3.625,1.4184a7.1443,7.1443,0,0,0-7.625-3.2856s4.875-.8901,6.75-.1772c0,0-1.625-2.4122-7.125-1.4122-2.10539.3829-7.79679-.062-8.28219.3506C183.3296,125.8731,186.74459,127.15629,180.40669,127.6705Z" transform="translate(0 0)"/><path class="cls-2" d="M179.57179,82.5972s-5.5918,28.9673-4.1133,30.8237c1.4814,1.8555,12.0312,9.7237,12.0312,9.7237s-1.4423,5.6933-5.03409,4.9765c-4.46881-.8916-23.21-5.6064-32.6778-4.019C149.7778,124.1021,154.0767,91.9317,179.57179,82.5972Z" transform="translate(0 0)"/></g><g id="text"><path class="cls-3" d="M226.65234,128.2959q-2.23461-5.7583-2.23193-18.43164a117.25806,117.25806,0,0,1,5.32764-35.56836,10.8331,10.8331,0,0,1,4.248-6.12012q2.9502-1.94385,8.2793-1.94336a8.12973,8.12973,0,0,1,4.0332.71973,2.97584,2.97584,0,0,1,1.15235,2.73535q0,2.30567-2.16016,10.36816-1.44141,5.76123-2.30469,10.00782a99.549,99.549,0,0,0-1.43945,10.584,77.94814,77.94814,0,0,1,9.28711-19.00781,43.752,43.752,0,0,1,11.08789-11.5918q5.68653-3.813,10.72852-3.81543,5.03905,0,7.1289,2.30371,2.08594,2.30421,2.08789,7.05567,0,4.60986-2.73633,16.7041-1.1543,5.18407-1.584,7.77637,7.19825-17.7129,15.98438-25.77637,8.78026-8.0625,16.416-8.06348,9.35742,0,9.35938,9.35938,0,5.61621-3.168,20.30371-2.73633,12.52881-2.73633,16.56054,0,5.76125,4.17578,5.75977,2.87988,0,6.83984-3.52832a115.27552,115.27552,0,0,0,10.584-11.44727,5.05862,5.05862,0,0,1,3.88867-2.0166,3.32672,3.32672,0,0,1,2.95117,1.72852,8.92232,8.92232,0,0,1,1.08008,4.75195q0,5.76123-2.73633,8.92774A63.617,63.617,0,0,1,326.877,129.16016a27.9305,27.9305,0,0,1-16.20117,4.8955q-7.34472,0-11.08789-4.248-3.74708-4.24512-3.74414-12.31153,0-4.02978,2.01563-14.40039,1.87206-9.07178,1.873-12.52734,0-2.30274-1.584-2.30469-1.87207,0-5.32813,4.82422A70.88011,70.88011,0,0,0,285.9082,105.832a103.37406,103.37406,0,0,0-5.61523,16.7041q-1.58789,6.91113-3.67188,9.21582-2.09179,2.30567-6.69726,2.30371a7.62707,7.62707,0,0,1-7.127-4.53613,23.48924,23.48924,0,0,1-2.377-11.01562,124.80522,124.80522,0,0,1,1.43946-15.83985q1.15136-9.21387,1.15234-12.0957,0-2.30274-1.584-2.30469-2.15918,0-5.4707,5.18457a74.10127,74.10127,0,0,0-6.4082,13.24805,126.77272,126.77272,0,0,0-4.96875,15.83984q-1.585,6.77051-3.67188,9.14356-2.08887,2.376-6.55175,2.376Q228.88158,134.05566,226.65234,128.2959Z" transform="translate(0 0)"/><path class="cls-3" d="M398.44238,102.95215a8.93143,8.93143,0,0,1,1.08008,4.75195q0,5.76123-2.73633,8.92774-5.32909,6.48047-15.04785,11.95214a41.72948,41.72948,0,0,1-20.80762,5.47168q-15.1201,0-23.47265-8.208-8.35254-8.20752-8.35156-22.46387a41.65542,41.65542,0,0,1,4.17578-18.50391A34.20641,34.20641,0,0,1,344.874,71.27148a29.16113,29.16113,0,0,1,16.77637-5.03906q8.34961,0,13.39258,4.96778,5.0376,4.96728,5.03906,13.46386a23.28023,23.28023,0,0,1-7.12793,17.06348q-7.12792,7.12792-24.11914,11.30469,3.59766,6.624,13.67969,6.624,6.48047,0,14.75976-4.53613a48.77026,48.77026,0,0,0,14.32813-11.87989,5.05681,5.05681,0,0,1,3.88769-2.0166A3.3282,3.3282,0,0,1,398.44238,102.95215Zm-48.24023-16.416a28.8729,28.8729,0,0,0-3.67188,14.97559v.28808q8.49464-2.01416,13.39258-6.04785,4.89258-4.02978,4.89551-9.36035A6.26439,6.26439,0,0,0,363.30664,82a5.28734,5.28734,0,0,0-4.10449-1.65625Q353.873,80.34375,350.20215,86.53613Z" transform="translate(0 0)"/><path class="cls-2" d="M393.40137,126.06348q-7.8501-7.99072-7.84766-21.09571a43.39181,43.39181,0,0,1,4.60742-20.44824,35.10317,35.10317,0,0,1,11.95215-13.53515,27.92777,27.92777,0,0,1,15.4082-4.752q7.91748,0,12.31153,4.67969a16.86683,16.86683,0,0,1,4.39258,12.02344,18.635,18.635,0,0,1-2.66407,10.22461q-2.666,4.17772-6.98437,4.17578a6.92351,6.92351,0,0,1-4.3916-1.2959,4.31113,4.31113,0,0,1-1.65625-3.60059,10.68966,10.68966,0,0,1,.28808-2.30371q.28711-1.29639.43164-1.87207a12.804,12.804,0,0,0,.72071-4.03125,4.08833,4.08833,0,0,0-.93653-2.88086,3.46429,3.46429,0,0,0-2.66406-1.00781,8.57889,8.57889,0,0,0-6.19141,2.95215,21.00587,21.00587,0,0,0-4.60839,7.99219A33.997,33.997,0,0,0,403.8418,102.376q0,16.70654,14.54394,16.7041,5.90186,0,12.74317-3.96a51.97589,51.97589,0,0,0,13.46484-11.87989,5.05391,5.05391,0,0,1,3.8877-2.0166,3.33037,3.33037,0,0,1,2.95214,1.72852,8.93143,8.93143,0,0,1,1.08008,4.75195,13.95657,13.95657,0,0,1-2.73633,8.92774,46.71106,46.71106,0,0,1-16.20019,12.88769,41.95477,41.95477,0,0,1-18.21582,4.53613Q401.24756,134.05566,393.40137,126.06348Z" transform="translate(0 0)"/><path class="cls-2" d="M456.18457,133.76758q-3.9624-3.45557-3.96-7.77539a8.85681,8.85681,0,0,1,2.73633-6.48047q2.73339-2.73341,8.06347-2.73535a31.89277,31.89277,0,0,1,4.39258.35937q2.51661.36181,3.81543.50391a18.54287,18.54287,0,0,0-1.65625-7.05567,35.42574,35.42574,0,0,0-3.81543-6.4082q-2.30566-3.09522-4.32031-5.39941A94.17607,94.17607,0,0,1,452.585,112.8877a105.59536,105.59536,0,0,1-9.57617,10.65625,7.71256,7.71256,0,0,1-5.47266,2.59179,4.71882,4.71882,0,0,1-3.74316-1.65625,6.03032,6.03032,0,0,1-1.44043-4.10351,8.22135,8.22135,0,0,1,2.01562-5.32813l1.87207-2.30371a186.21292,186.21292,0,0,0,11.95215-16.12793q2.44776-4.1748,5.75977-11.16016,3.312-6.98291,6.48047-14.47167,2.73339-6.33546,11.376-6.33692a15.12477,15.12477,0,0,1,5.61621.7207,2.40328,2.40328,0,0,1,1.584,2.30372,10.64646,10.64646,0,0,1-.57617,2.73632,20.98844,20.98844,0,0,1-1.584,3.74414q-2.59277,5.18409-2.59179,8.78321a9.585,9.585,0,0,0,1.51171,4.75195,53.81232,53.81232,0,0,0,4.67969,6.48047,91.78329,91.78329,0,0,1,6.98438,10.2959,18.71168,18.71168,0,0,1,2.376,9.28808,39.18153,39.18153,0,0,1-.28808,4.03223q7.05323-2.73341,16.55957-14.544a5.05714,5.05714,0,0,1,3.88867-2.0166,3.33039,3.33039,0,0,1,2.95215,1.72852,8.93153,8.93153,0,0,1,1.08008,4.75195,13.95663,13.95663,0,0,1-2.73633,8.92774q-7.20264,8.92968-13.752,12.168-6.55518,3.24024-16.2002,3.52832a20.45027,20.45027,0,0,1-13.67969,4.89551Q460.14307,137.22363,456.18457,133.76758Z" transform="translate(0 0)"/><path class="cls-2" d="M517.6709,133.76758q-3.9624-3.45557-3.96-7.77539a8.85681,8.85681,0,0,1,2.73633-6.48047q2.73339-2.73341,8.06347-2.73535a31.89277,31.89277,0,0,1,4.39258.35937q2.51659.36181,3.81543.50391a18.54287,18.54287,0,0,0-1.65625-7.05567,35.42574,35.42574,0,0,0-3.81543-6.4082q-2.30566-3.09522-4.32031-5.39941a94.17607,94.17607,0,0,1-8.85547,14.11133,105.59536,105.59536,0,0,1-9.57617,10.65625,7.71256,7.71256,0,0,1-5.47266,2.59179,4.7188,4.7188,0,0,1-3.74316-1.65625,6.03032,6.03032,0,0,1-1.44043-4.10351,8.22135,8.22135,0,0,1,2.01562-5.32813l1.87207-2.30371a186.215,186.215,0,0,0,11.95215-16.12793,93.02306,93.02306,0,0,0,5.25586-9.93652q2.66309-5.75683,6.98438-15.69531,2.73339-6.33546,11.376-6.33692a15.12477,15.12477,0,0,1,5.61621.7207,2.40328,2.40328,0,0,1,1.584,2.30372,10.64646,10.64646,0,0,1-.57617,2.73632,20.98844,20.98844,0,0,1-1.584,3.74414q-2.59276,5.18409-2.5918,8.78321a9.58505,9.58505,0,0,0,1.51172,4.75195,53.81232,53.81232,0,0,0,4.67969,6.48047,91.78329,91.78329,0,0,1,6.98438,10.2959,18.71168,18.71168,0,0,1,2.376,9.28808,24.48162,24.48162,0,0,1-2.80762,11.44825,22.88076,22.88076,0,0,1-7.84863,8.71191,20.51236,20.51236,0,0,1-11.51953,3.31152Q521.6294,137.22363,517.6709,133.76758Z" transform="translate(0 0)"/></g></svg>