<svg id="Calque_1" data-name="Calque 1" xmlns="http://www.w3.org/2000/svg" viewBox="0 0 800 200"><defs><style>.cls-1{fill:#272727;}.cls-2{fill:#fff9ef;}.cls-3{fill:#ff1000;}.cls-4{fill:#fff;}</style></defs><title>logo-quote-dark</title><rect class="cls-1" width="800" height="200"/><path class="cls-2" d="M203.855,111.6445s5.8379,1.1821,7.1416.917a60.76247,60.76247,0,0,1,8.1533-.7427,15.052,15.052,0,0,1,2.7764.7661s-3.09769-2.6264-5.7119-1.8222c0,0,2.78119.0483,3.8046,0a9.83276,9.83276,0,0,1,3.1524,1.0034,6.65747,6.65747,0,0,0-6.6309-2.3238s4.2393-.6294,5.87011-.125c0,0-1.413-1.706-6.19621-.9985-1.8311.2705-7.7051.0586-7.2022.2476C210.23579,109.0258,209.36669,111.2812,203.855,111.6445Z"/><path class="cls-2" d="M201.52389,97.9721s1.166,7.0489,2.3311,8.0532a12.68029,12.68029,0,0,0,6.2939,2.4541s-.706,3.6299-3.82029,3.6221c-1.37891-.0034-8.93751-1.728-8.93751-1.728S194.56489,101.271,201.52389,97.9721Z"/><path class="cls-2" d="M131.2358,131.0732c1.2632.0195,3.7984,1.5054,3.7984,1.5054s-2.2979-3.9981-7.9722-3.4341c0,0,5.2652-.46,7.2315.3003,0,0-1.6031-2.252-7.5435-1.7363-2.27341.1967-25.2749-1.5772-24.6709-1.3008,0,0,2.3506,3.6777,3.9819,4.6699,1.5948.9717,7.4541,1.8325,13.522,1.5674a2.6251,2.6251,0,0,0,.4111-.0166,73.43108,73.43108,0,0,1,10.0889-.2969,18.29173,18.29173,0,0,1,3.3545,1.1782,12.21371,12.21371,0,0,0-4.0527-2.5268C130.106,131.0293,130.7998,131.0669,131.2358,131.0732Z"/><path class="cls-2" d="M192.88039,51.03461S178.6616,27.4248,163.7153,37.32761C148.769,47.228,174.9292,55.29441,192.88039,51.03461Z"/><path class="cls-2" d="M187.43209,53.26851s-16.92769-22.5332-31.874-12.6304C140.6113,50.53851,173.773,84.72111,187.43209,53.26851Z"/><path class="cls-2" d="M81.5981,102.4775s17.792-39.43159,37.9898-43.75979c20.1968-4.3281,46.1645,17.6963,54.8188,9.8106,8.65629-7.8872,11.542-23.2749,18.27449-24.7173,6.7324-1.4429,25.1025-9.8931,26.497-4.9463,1.3936,4.9463.35741,24.28709-12.0703,43.416-6.1172,9.41459-3.3662,36.11429-39.43159,42.34129-36.0669,6.2276-71.6514,2.2715-78.3838-1.04C82.56009,120.271,76.30909,112.7338,81.5981,102.4775Z"/><path class="cls-2" d="M84.13039,119.9707s-13.4566,4.1059-4.5122,15.8203c8.94531,11.7138,45.04151,33.6089,74.03661,16.4482,28.99409-17.1601,33.89449-8.876,42.09569,1.7754,0,0-12.2598-7.6924-17.71-7.1011s-22.6113,18.9561-48.6474,17.4663c-26.0357-1.4897-88.6983-30.646-49.37891-51.2754C80.01419,113.1044,84.43259,113.1464,84.13039,119.9707Z"/><path class="cls-3" d="M193.00829,55.06691s-2.9043-4.3702-.0381-6.2647c2.8662-1.8931,6.4483-.5596,7.1231.4897C202.02689,52.29591,194.98,59.39991,193.00829,55.06691Z"/><path class="cls-4" d="M193.93309,51.62641s-.7539-1.1347-.0088-1.6279a1.52982,1.52982,0,0,1,1.8496.1274C196.27589,50.90621,194.44579,52.75141,193.93309,51.62641Z"/><path class="cls-4" d="M196.59719,50.80851s-.7539-1.1342-.0108-1.6264a1.53461,1.53461,0,0,1,1.8506.1264C198.939,50.0888,197.10889,51.93351,196.59719,50.80851Z"/><path class="cls-2" d="M178.9731,51.54931s-16.0576-13.4024-21.22651-9.023c-5.168,4.3809,3.69141,19.23149,12.49611,19.23149C179.0483,61.7578,182.0757,53.95651,178.9731,51.54931Z"/><path class="cls-2" d="M218.104,37.67621s-2.2637,2.4043-1.6728,3.9717C217.02489,43.2148,222.73489,41.30951,218.104,37.67621Z"/><path class="cls-2" d="M202.40669,127.354s6.7129,1.6713,8.2129,1.2963a57.21444,57.21444,0,0,1,9.375-1.0502,14.9114,14.9114,0,0,1,3.19341,1.0834s-3.5625-3.7143-6.56841-2.5766c0,0,3.19831.0679,4.375,0s3.625,1.4184,3.625,1.4184a7.1443,7.1443,0,0,0-7.625-3.2856s4.875-.8901,6.75-.1772c0,0-1.625-2.4122-7.125-1.4122-2.10539.3829-7.79679-.062-8.28219.3506C205.3296,125.5566,208.74459,126.8398,202.40669,127.354Z"/><path class="cls-2" d="M201.57179,82.28071s-5.5918,28.96729-4.1133,30.82369c1.4814,1.8555,12.0312,9.7237,12.0312,9.7237s-1.4423,5.6933-5.03409,4.9765c-4.46881-.8916-23.21-5.6064-32.6778-4.019C171.7778,123.7856,176.0767,91.6152,201.57179,82.28071Z"/><path class="cls-2" d="M271.38281,108.38086q-2.23461-5.7583-2.23193-18.43164a117.25806,117.25806,0,0,1,5.32764-35.56836,10.8331,10.8331,0,0,1,4.248-6.12012q2.9502-1.94385,8.2793-1.94336a8.12973,8.12973,0,0,1,4.0332.71973,2.97584,2.97584,0,0,1,1.15235,2.73535q0,2.30566-2.16016,10.36816-1.44141,5.76125-2.30469,10.00782a99.54974,99.54974,0,0,0-1.43945,10.584,77.94814,77.94814,0,0,1,9.28711-19.00781,43.75219,43.75219,0,0,1,11.08789-11.5918q5.68652-3.813,10.72851-3.81543,5.03907,0,7.12891,2.30371,2.08595,2.30421,2.08789,7.05567,0,4.60986-2.73633,16.7041-1.15429,5.18408-1.584,7.77637,7.19825-17.7129,15.98437-25.77637,8.78028-8.0625,16.416-8.06348,9.35742,0,9.35938,9.35938,0,5.61621-3.168,20.30371-2.73633,12.52881-2.73633,16.56055,0,5.76123,4.17578,5.75976,2.87988,0,6.83984-3.52832a115.27516,115.27516,0,0,0,10.584-11.44726,5.05863,5.05863,0,0,1,3.88867-2.01661,3.32674,3.32674,0,0,1,2.95117,1.72852,8.92241,8.92241,0,0,1,1.08008,4.752q0,5.76123-2.73633,8.92774a63.617,63.617,0,0,1-13.31836,12.52832,27.93042,27.93042,0,0,1-16.20117,4.8955q-7.34472,0-11.08789-4.248-3.74707-4.24512-3.74414-12.31153,0-4.02978,2.01562-14.40039,1.87208-9.07177,1.87305-12.52734,0-2.30274-1.584-2.30469-1.87208,0-5.32813,4.82422A70.88011,70.88011,0,0,0,330.63867,85.917a103.37342,103.37342,0,0,0-5.61523,16.7041q-1.5879,6.91115-3.67188,9.21582-2.0918,2.30566-6.69726,2.30371a7.62709,7.62709,0,0,1-7.127-4.53613,23.48936,23.48936,0,0,1-2.37695-11.01562A124.80669,124.80669,0,0,1,306.58984,82.749q1.15137-9.21386,1.15235-12.0957,0-2.30274-1.584-2.30469-2.15918,0-5.4707,5.18457a74.10127,74.10127,0,0,0-6.4082,13.24805,126.77272,126.77272,0,0,0-4.96875,15.83984q-1.585,6.77052-3.67188,9.14356-2.08887,2.376-6.55176,2.376Q273.61206,114.14062,271.38281,108.38086Z"/><path class="cls-2" d="M443.17285,83.03711a8.93143,8.93143,0,0,1,1.08008,4.752q0,5.76123-2.73633,8.92774-5.32909,6.48046-15.04785,11.95215a41.72958,41.72958,0,0,1-20.80762,5.47167q-15.12012,0-23.47265-8.208-8.35254-8.20752-8.35157-22.46387a41.65543,41.65543,0,0,1,4.17579-18.50391,34.20631,34.20631,0,0,1,11.59179-13.60839,29.16106,29.16106,0,0,1,16.77637-5.03907q8.34962,0,13.39258,4.96778,5.0376,4.96728,5.03906,13.46386a23.28023,23.28023,0,0,1-7.12793,17.06348q-7.12793,7.12792-24.11914,11.30469,3.59766,6.624,13.67969,6.624,6.48047,0,14.75976-4.53613A48.77051,48.77051,0,0,0,436.333,83.3252a5.05683,5.05683,0,0,1,3.88769-2.01661A3.32823,3.32823,0,0,1,443.17285,83.03711Zm-48.24023-16.416a28.8729,28.8729,0,0,0-3.67188,14.97559v.28809q8.49464-2.01417,13.39258-6.04786,4.89258-4.02978,4.89551-9.36035a6.26439,6.26439,0,0,0-1.51172-4.3916,5.28734,5.28734,0,0,0-4.10449-1.65625Q398.60351,60.42871,394.93262,66.62109Z"/><path class="cls-3" d="M438.13184,106.14844q-7.8501-7.99072-7.84766-21.09571a43.39181,43.39181,0,0,1,4.60742-20.44824,35.10317,35.10317,0,0,1,11.95215-13.53515,27.92775,27.92775,0,0,1,15.4082-4.752q7.91748,0,12.31153,4.67969a16.86682,16.86682,0,0,1,4.39257,12.02344A18.635,18.635,0,0,1,476.292,73.24512q-2.666,4.17772-6.98437,4.17578a6.92349,6.92349,0,0,1-4.3916-1.2959,4.31113,4.31113,0,0,1-1.65625-3.60059,10.68966,10.68966,0,0,1,.28808-2.30371q.28712-1.29637.43164-1.87207a12.80426,12.80426,0,0,0,.72071-4.03125,4.08834,4.08834,0,0,0-.93653-2.88086,3.46429,3.46429,0,0,0-2.66406-1.00781,8.57887,8.57887,0,0,0-6.19141,2.95215,21.006,21.006,0,0,0-4.6084,7.99219,33.99734,33.99734,0,0,0-1.72753,11.08789q0,16.70654,14.54394,16.7041,5.90185,0,12.74317-3.96A51.976,51.976,0,0,0,489.32422,83.3252a5.0539,5.0539,0,0,1,3.88769-2.01661,3.3304,3.3304,0,0,1,2.95215,1.72852,8.93143,8.93143,0,0,1,1.08008,4.752,13.95655,13.95655,0,0,1-2.73633,8.92774,46.71106,46.71106,0,0,1-16.20019,12.88769,41.9548,41.9548,0,0,1-18.21582,4.53613Q445.978,114.14062,438.13184,106.14844Z"/><path class="cls-3" d="M500.915,113.85254q-3.9624-3.45557-3.96-7.77539a8.85683,8.85683,0,0,1,2.73633-6.48047q2.73339-2.73341,8.06347-2.73535a31.89277,31.89277,0,0,1,4.39258.35937q2.51661.36182,3.81543.50391a18.54277,18.54277,0,0,0-1.65625-7.05566,35.42547,35.42547,0,0,0-3.81543-6.40821q-2.30567-3.0952-4.32031-5.39941a94.17555,94.17555,0,0,1-8.85547,14.11133,105.59536,105.59536,0,0,1-9.57617,10.65625,7.71252,7.71252,0,0,1-5.47266,2.59179,4.71882,4.71882,0,0,1-3.74316-1.65625,6.03032,6.03032,0,0,1-1.44043-4.10351,8.22135,8.22135,0,0,1,2.01562-5.32813l1.87207-2.30371a186.21292,186.21292,0,0,0,11.95215-16.12793q2.44776-4.1748,5.75977-11.16015,3.312-6.98292,6.48047-14.47168,2.73339-6.33546,11.376-6.33692a15.12477,15.12477,0,0,1,5.61621.7207,2.40328,2.40328,0,0,1,1.584,2.30372,10.64646,10.64646,0,0,1-.57617,2.73632,20.98844,20.98844,0,0,1-1.584,3.74414q-2.59276,5.18409-2.5918,8.78321a9.58505,9.58505,0,0,0,1.51172,4.75195,53.81232,53.81232,0,0,0,4.67969,6.48047,91.78329,91.78329,0,0,1,6.98438,10.2959,18.71168,18.71168,0,0,1,2.376,9.28808,39.18153,39.18153,0,0,1-.28808,4.03223q7.05321-2.73339,16.55957-14.54394a5.05716,5.05716,0,0,1,3.88867-2.01661,3.33042,3.33042,0,0,1,2.95215,1.72852,8.93153,8.93153,0,0,1,1.08008,4.752,13.95661,13.95661,0,0,1-2.73633,8.92774q-7.20264,8.92968-13.752,12.168Q535.688,112.125,526.043,112.41309a20.45031,20.45031,0,0,1-13.67969,4.8955Q504.87354,117.30859,500.915,113.85254Z"/><path class="cls-3" d="M562.40137,113.85254q-3.9624-3.45557-3.96-7.77539a8.85686,8.85686,0,0,1,2.73632-6.48047q2.73341-2.73341,8.06348-2.73535a31.89277,31.89277,0,0,1,4.39258.35937q2.51659.36182,3.81543.50391A18.54277,18.54277,0,0,0,575.793,90.669a35.42547,35.42547,0,0,0-3.81543-6.40821q-2.30566-3.0952-4.32031-5.39941a94.17636,94.17636,0,0,1-8.85547,14.11133,105.59536,105.59536,0,0,1-9.57617,10.65625,7.71252,7.71252,0,0,1-5.47266,2.59179,4.7188,4.7188,0,0,1-3.74316-1.65625,6.03032,6.03032,0,0,1-1.44043-4.10351,8.22135,8.22135,0,0,1,2.01562-5.32813L542.457,92.8291a186.215,186.215,0,0,0,11.95215-16.12793,93.02306,93.02306,0,0,0,5.25586-9.93652q2.66309-5.75684,6.98437-15.69531,2.7334-6.33546,11.376-6.33692a15.12484,15.12484,0,0,1,5.61621.7207,2.40328,2.40328,0,0,1,1.584,2.30372,10.64615,10.64615,0,0,1-.57618,2.73632,20.98765,20.98765,0,0,1-1.584,3.74414q-2.59278,5.18409-2.5918,8.78321a9.58505,9.58505,0,0,0,1.51172,4.75195,53.81007,53.81007,0,0,0,4.67969,6.48047,91.78164,91.78164,0,0,1,6.98437,10.2959,18.71158,18.71158,0,0,1,2.376,9.28808,24.48162,24.48162,0,0,1-2.80762,11.44825,22.88069,22.88069,0,0,1-7.84863,8.71191,20.51236,20.51236,0,0,1-11.51953,3.31152Q566.35987,117.30859,562.40137,113.85254Z"/><path class="cls-3" d="M251.01416,150.96094a4.43738,4.43738,0,0,1-.85254-2.832,7.8013,7.8013,0,0,1,.8877-3.63575,7.59293,7.59293,0,0,1,2.36425-2.76074,5.33752,5.33752,0,0,1,3.13184-1.04394.93493.93493,0,0,1,.708.2041,1.74434,1.74434,0,0,1,.30078.73242,4.9342,4.9342,0,0,1,1.00781-.0957,1.25972,1.25972,0,0,1,.8877.28808,1.0539,1.0539,0,0,1,.3125.81543,13.17227,13.17227,0,0,1-.24024,1.91992q-.26514,1.46486-.4082,2.7959a28.10154,28.10154,0,0,0-.14356,2.98828,1.88133,1.88133,0,0,1-.37207,1.30762,1.59984,1.59984,0,0,1-1.21191.39649,1.649,1.649,0,0,1-1.21289-.39649,1.76163,1.76163,0,0,1-.39551-1.2832l.02442-.38477a2.65256,2.65256,0,0,1-2.56836,2.06446A2.695,2.695,0,0,1,251.01416,150.96094Zm4.37988-2.28028a11.07963,11.07963,0,0,0,.9834-3.33593l.45606-2.42383a2.83737,2.83737,0,0,0-1.82325.75586,5.152,5.152,0,0,0-1.34472,1.93262,6.501,6.501,0,0,0-.50391,2.54394,1.8136,1.8136,0,0,0,.27637,1.0918.86633.86633,0,0,0,.73144.37207Q254.84181,149.61719,255.394,148.68066Z"/><path class="cls-2" d="M270.96924,151.64453a2.18262,2.18262,0,0,1-.38379-1.5,14.84667,14.84667,0,0,1,.15625-1.90723q.15527-1.16454.51562-3.2041.624-3.76758.98438-6.52832a24.06951,24.06951,0,0,0,.21582-2.87988q0-1.07959-.792-1.08008a2.7293,2.7293,0,0,0-1.5.63574,9.97027,9.97027,0,0,0-1.93262,2.02832.93776.93776,0,0,1-.74316.45606.73577.73577,0,0,1-.58887-.32422,1.16064,1.16064,0,0,1-.25195-.73144,2.10882,2.10882,0,0,1,.15625-.78028,4.34366,4.34366,0,0,1,.5166-.90039,9.05984,9.05984,0,0,1,2.56738-2.4834,5.34547,5.34547,0,0,1,2.832-.876,2.50432,2.50432,0,0,1,2.02832.83984,3.70734,3.70734,0,0,1,.708,2.44727,11.41655,11.41655,0,0,1-.12012,1.52441q-.12012.876-.21582,1.42773-.09668.55225-.14453.76856a13.39159,13.39159,0,0,1,3.07227-5.46,5.45146,5.45146,0,0,1,3.74414-1.54785,3.00422,3.00422,0,0,1,2.46,1.10351,4.81984,4.81984,0,0,1,.90039,3.12012,11.19114,11.19114,0,0,1-.2168,1.96777,11.6592,11.6592,0,0,1,2.8086-4.75195,5.37573,5.37573,0,0,1,3.69531-1.43945,3.16873,3.16873,0,0,1,2.58008,1.0791,4.5914,4.5914,0,0,1,.90039,3.02441,13.06461,13.06461,0,0,1-.3125,2.56836l-1.46387,6.86328a10.74907,10.74907,0,0,0-.23926,2.06446,2.14975,2.14975,0,0,0,.46778,1.51171,1.69453,1.69453,0,0,0,1.30761.50391,2.67608,2.67608,0,0,0,1.54785-.52734,10.18054,10.18054,0,0,0,1.78809-1.752.84147.84147,0,0,1,.64844-.33593.55526.55526,0,0,1,.49218.28711,1.49782,1.49782,0,0,1,.17969.792,2.2675,2.2675,0,0,1-.45605,1.48828,9.28752,9.28752,0,0,1-2.47168,2.208,5.11644,5.11644,0,0,1-2.56836.69629,4.19564,4.19564,0,0,1-3.19238-1.21192,4.52554,4.52554,0,0,1-1.15137-3.252,21.24035,21.24035,0,0,1,.57617-4.10449l.96-4.39161q.04688-.21679.168-.76855.11865-.55078.19141-1.04395a6.71131,6.71131,0,0,0,.07226-.97167,2.04665,2.04665,0,0,0-.32422-1.25977,1.09743,1.09743,0,0,0-.92382-.41992,3.3355,3.3355,0,0,0-2.36426,1.45215,14.91757,14.91757,0,0,0-2.35157,4.81152,48.03907,48.03907,0,0,0-1.8125,8.73633,3.83529,3.83529,0,0,1-.58789,1.93164,1.69021,1.69021,0,0,1-1.35546.49219,1.59618,1.59618,0,0,1-1.18848-.38379,2.09136,2.09136,0,0,1-.37207-1.44043,16.485,16.485,0,0,1,.26465-2.58008q.26367-1.59522.67187-3.75586a54.00037,54.00037,0,0,0,1.10352-7.48828,2.1322,2.1322,0,0,0-.34766-1.34375,1.26078,1.26078,0,0,0-1.04394-.43164,3.46333,3.46333,0,0,0-2.42383,1.332,13.88189,13.88189,0,0,0-2.43653,4.72754,48.88941,48.88941,0,0,0-1.97949,9.17969,4.30646,4.30646,0,0,1-.49219,1.7041,1.41928,1.41928,0,0,1-1.25976.48047A1.71513,1.71513,0,0,1,270.96924,151.64453Z"/><path class="cls-2" d="M298.07764,150.93652a5.36,5.36,0,0,1-.708-2.92773,17.85482,17.85482,0,0,1,.27637-2.77149,25.7816,25.7816,0,0,1,.708-3.15625,2.034,2.034,0,0,1,.57618-1.05664,1.84569,1.84569,0,0,1,1.15136-.28711q1.22461,0,1.22461.81543a18.856,18.856,0,0,1-.45605,2.78418,20.6803,20.6803,0,0,0-.57617,3.57618,2.53234,2.53234,0,0,0,.1914,1.10351.6682.6682,0,0,0,.64844.38477,1.80763,1.80763,0,0,0,1.08008-.60059,21.50305,21.50305,0,0,0,1.72754-1.89551.84147.84147,0,0,1,.64843-.33593.55528.55528,0,0,1,.49219.28711,1.48872,1.48872,0,0,1,.17969.792,2.20717,2.20717,0,0,1-.45606,1.48828q-2.376,2.90478-4.44043,2.9043A2.4926,2.4926,0,0,1,298.07764,150.93652Zm.94824-12.25195a1.69453,1.69453,0,0,1-.50391-1.30762,1.77293,1.77293,0,0,1,.66016-1.40429,2.4393,2.4393,0,0,1,1.64355-.56348,2.27244,2.27244,0,0,1,1.44043.43164,1.46621,1.46621,0,0,1,.55176,1.22363,1.95209,1.95209,0,0,1-.624,1.52442,2.3774,2.3774,0,0,1-1.65625.56445A2.14991,2.14991,0,0,1,299.02588,138.68457Z"/><path class="cls-2" d="M303.71729,151.08105a9.19672,9.19672,0,0,1-.37208-3.07226,19.54932,19.54932,0,0,1,.8877-5.92774,1.81181,1.81181,0,0,1,.708-1.0205,2.49922,2.49922,0,0,1,1.37988-.32325,1.36278,1.36278,0,0,1,.67188.11915.49748.49748,0,0,1,.19238.45605,9.12326,9.12326,0,0,1-.36035,1.72852q-.24024.95946-.38379,1.67968a17.44212,17.44212,0,0,0-.24024,1.77637,13.65638,13.65638,0,0,1,1.77637-3.36035,6.96587,6.96587,0,0,1,1.93164-1.84766,3.51045,3.51045,0,0,1,1.74024-.55176,1.37892,1.37892,0,0,1,1.56054,1.55958,19.33815,19.33815,0,0,1-.52832,3.38378,16.60022,16.60022,0,0,0-.45605,2.75977q0,.96093.69629.96094a1.876,1.876,0,0,0,1.13965-.58887,19.19406,19.19406,0,0,0,1.76367-1.90723.84147.84147,0,0,1,.64843-.33593.55528.55528,0,0,1,.49219.28711,1.48872,1.48872,0,0,1,.17969.792,2.20717,2.20717,0,0,1-.45606,1.48828,10.61358,10.61358,0,0,1-2.21972,2.08789,4.65742,4.65742,0,0,1-2.7002.81641,2.33156,2.33156,0,0,1-1.84765-.708,3.00611,3.00611,0,0,1-.624-2.05176,14.91345,14.91345,0,0,1,.33594-2.40039,12.50852,12.50852,0,0,0,.31152-2.08789q0-.38379-.26367-.38379-.312,0-.876.80371a12.86856,12.86856,0,0,0-1.15235,2.124,16.59013,16.59013,0,0,0-.94824,2.78418,3.74361,3.74361,0,0,1-.61133,1.52344,1.38005,1.38005,0,0,1-1.0918.39649A1.3116,1.3116,0,0,1,303.71729,151.08105Z"/><path class="cls-2" d="M315.88428,150.93652a5.36,5.36,0,0,1-.708-2.92773,17.85482,17.85482,0,0,1,.27637-2.77149,25.7816,25.7816,0,0,1,.708-3.15625,2.034,2.034,0,0,1,.57618-1.05664,1.84569,1.84569,0,0,1,1.15136-.28711q1.22462,0,1.22461.81543a18.856,18.856,0,0,1-.45605,2.78418,20.6803,20.6803,0,0,0-.57617,3.57618,2.53234,2.53234,0,0,0,.1914,1.10351.6682.6682,0,0,0,.64844.38477,1.80763,1.80763,0,0,0,1.08008-.60059,21.50305,21.50305,0,0,0,1.72754-1.89551.84147.84147,0,0,1,.64843-.33593.55527.55527,0,0,1,.49219.28711,1.48872,1.48872,0,0,1,.17969.792,2.20722,2.20722,0,0,1-.45605,1.48828q-2.376,2.90478-4.44043,2.9043A2.49261,2.49261,0,0,1,315.88428,150.93652Zm.94824-12.25195a1.69453,1.69453,0,0,1-.50391-1.30762,1.77293,1.77293,0,0,1,.66016-1.40429,2.4393,2.4393,0,0,1,1.64355-.56348,2.27244,2.27244,0,0,1,1.44043.43164,1.46621,1.46621,0,0,1,.55176,1.22363,1.95209,1.95209,0,0,1-.624,1.52442,2.3774,2.3774,0,0,1-1.65625.56445A2.14991,2.14991,0,0,1,316.83252,138.68457Z"/><path class="cls-2" d="M321.5249,151.08105a9.197,9.197,0,0,1-.37207-3.07226,19.54932,19.54932,0,0,1,.8877-5.92774,1.81181,1.81181,0,0,1,.708-1.0205,2.49922,2.49922,0,0,1,1.37988-.32325,1.36274,1.36274,0,0,1,.67187.11915.49749.49749,0,0,1,.19239.45605,9.12276,9.12276,0,0,1-.36036,1.72852q-.24022.95946-.38378,1.668a16.79776,16.79776,0,0,0-.24024,1.76368,13.02672,13.02672,0,0,1,1.54785-3.168,7.2815,7.2815,0,0,1,1.84864-1.93164,3.24683,3.24683,0,0,1,1.78808-.63575,1.54489,1.54489,0,0,1,1.1875.38379,1.70364,1.70364,0,0,1,.34863,1.17579,15.22113,15.22113,0,0,1-.45605,2.78417q-.19336.86427-.26465,1.2959a11.89172,11.89172,0,0,1,2.66406-4.2959,4.21713,4.21713,0,0,1,2.73633-1.34375,1.37823,1.37823,0,0,1,1.55957,1.55958,19.30672,19.30672,0,0,1-.52734,3.38378,16.60063,16.60063,0,0,0-.45606,2.75977q0,.96093.69532.96094a1.87559,1.87559,0,0,0,1.14062-.58887,19.31418,19.31418,0,0,0,1.76367-1.90723.8415.8415,0,0,1,.64844-.33593.55638.55638,0,0,1,.49219.28711,1.49791,1.49791,0,0,1,.17969.792,2.20722,2.20722,0,0,1-.45606,1.48828,10.61362,10.61362,0,0,1-2.21973,2.08789,4.65741,4.65741,0,0,1-2.70019.81641,2.33509,2.33509,0,0,1-1.84863-.708,3.0111,3.0111,0,0,1-.624-2.05176,14.94991,14.94991,0,0,1,.33692-2.40039,12.50852,12.50852,0,0,0,.31152-2.08789q0-.38379-.26367-.38379-.312,0-.88867.80371a11.804,11.804,0,0,0-1.15137,2.124,17.2958,17.2958,0,0,0-.93652,2.78418,3.67007,3.67007,0,0,1-.61133,1.53614,1.44112,1.44112,0,0,1-1.11621.38379,1.27252,1.27252,0,0,1-1.18848-.75586,3.91989,3.91989,0,0,1-.39551-1.83594,20.75839,20.75839,0,0,1,.24024-2.64063q.19189-1.53515.1914-2.01562,0-.38379-.26367-.38379-.36034,0-.91211.86328a12.39359,12.39359,0,0,0-1.06836,2.208,21.30893,21.30893,0,0,0-.82812,2.64062,3.74375,3.74375,0,0,1-.61133,1.52344,1.38005,1.38005,0,0,1-1.0918.39649A1.31161,1.31161,0,0,1,321.5249,151.08105Z"/><path class="cls-2" d="M339.53564,150.96094a4.317,4.317,0,0,1-.88769-2.832,7.80141,7.80141,0,0,1,.88769-3.63575,7.593,7.593,0,0,1,2.36426-2.76074,5.33752,5.33752,0,0,1,3.13184-1.04394.93493.93493,0,0,1,.708.2041,1.74447,1.74447,0,0,1,.30078.73242,5.67386,5.67386,0,0,1,1.05566-.0957q1.1748,0,1.17578.83984a17.97972,17.97972,0,0,1-.36035,2.39941,23.27542,23.27542,0,0,0-.55176,3.84083.86875.86875,0,0,0,.18067.57519.57751.57751,0,0,0,.46777.2168,1.82167,1.82167,0,0,0,1.10352-.58887,20.28641,20.28641,0,0,0,1.75195-1.90723.84147.84147,0,0,1,.64844-.33593.55527.55527,0,0,1,.49218.28711,1.48872,1.48872,0,0,1,.17969.792,2.20722,2.20722,0,0,1-.45605,1.48828,12.13014,12.13014,0,0,1-2.08789,2.06445,3.56323,3.56323,0,0,1-2.13575.83985,2.23823,2.23823,0,0,1-1.45214-.54,3.2883,3.2883,0,0,1-.9961-1.47657,3.6471,3.6471,0,0,1-3.14453,2.01661A2.919,2.919,0,0,1,339.53564,150.96094Zm4.248-1.96778a4.03445,4.03445,0,0,0,.69629-1.65625l.8877-4.416a2.9114,2.9114,0,0,0-1.85938.75586,5.08742,5.08742,0,0,0-1.35644,1.93262,6.501,6.501,0,0,0-.50391,2.54394,1.69789,1.69789,0,0,0,.2998,1.10352,1.02021,1.02021,0,0,0,.82813.36035A1.31794,1.31794,0,0,0,343.78369,148.99316Z"/><path class="cls-2" d="M359.82764,146.85645a1.48882,1.48882,0,0,1,.17968.792,2.20722,2.20722,0,0,1-.45605,1.48828,10.34279,10.34279,0,0,1-2.24414,2.08789,4.80607,4.80607,0,0,1-2.748.81641,3.33108,3.33108,0,0,1-3.13183-1.91993,10.56881,10.56881,0,0,1-1.01954-4.96777,34.13711,34.13711,0,0,1,.75586-6.67285,22.66128,22.66128,0,0,1,2.23145-6.43164q1.47656-2.688,3.5166-2.6875a2.03549,2.03549,0,0,1,1.81152,1.06738,5.85157,5.85157,0,0,1,.66016,3.06055,17.48341,17.48341,0,0,1-1.584,6.624,36.6887,36.6887,0,0,1-4.2959,7.46387,2.77422,2.77422,0,0,0,.55176,1.40332,1.30043,1.30043,0,0,0,1.00781.4209,2.78288,2.78288,0,0,0,1.72851-.56446,13.13052,13.13052,0,0,0,1.89551-1.93164.84147.84147,0,0,1,.64844-.33593A.55528.55528,0,0,1,359.82764,146.85645Zm-4.69239-13.12793a32.75042,32.75042,0,0,0-1.22363,4.94433,35.75647,35.75647,0,0,0-.57617,5.66406,30.94285,30.94285,0,0,0,2.71191-5.62793,15.42836,15.42836,0,0,0,1.00782-5.14843q0-1.82373-.67188-1.82325Q355.83106,131.7373,355.13525,133.72852Z"/><path class="cls-2" d="M358.74756,150.93652a5.36,5.36,0,0,1-.708-2.92773,17.85482,17.85482,0,0,1,.27637-2.77149,25.77971,25.77971,0,0,1,.708-3.15625,2.034,2.034,0,0,1,.57617-1.05664,1.84571,1.84571,0,0,1,1.15136-.28711q1.22462,0,1.22461.81543a18.856,18.856,0,0,1-.45605,2.78418,20.6803,20.6803,0,0,0-.57617,3.57618,2.53234,2.53234,0,0,0,.1914,1.10351.6682.6682,0,0,0,.64844.38477,1.80763,1.80763,0,0,0,1.08008-.60059,21.50305,21.50305,0,0,0,1.72754-1.89551.84147.84147,0,0,1,.64844-.33593.55527.55527,0,0,1,.49218.28711,1.48872,1.48872,0,0,1,.17969.792,2.20722,2.20722,0,0,1-.45605,1.48828q-2.376,2.90478-4.44043,2.9043A2.49261,2.49261,0,0,1,358.74756,150.93652Zm.94824-12.25195a1.69453,1.69453,0,0,1-.50391-1.30762,1.77293,1.77293,0,0,1,.66016-1.40429,2.43932,2.43932,0,0,1,1.64356-.56348,2.27248,2.27248,0,0,1,1.44043.43164,1.46623,1.46623,0,0,1,.55175,1.22363,1.95206,1.95206,0,0,1-.624,1.52442,2.3774,2.3774,0,0,1-1.65625.56445A2.14991,2.14991,0,0,1,359.6958,138.68457Z"/><path class="cls-2" d="M366.523,151.99316a1.69412,1.69412,0,0,1-.66016-1.29589,1.477,1.477,0,0,1,.45606-1.08008,1.82283,1.82283,0,0,1,1.34375-.45606,5.26142,5.26142,0,0,1,.73242.05957c.2793.04.49219.06836.63574.084a3.08213,3.08213,0,0,0-.27539-1.17578,5.90742,5.90742,0,0,0-.63672-1.06836q-.38379-.51562-.71972-.89942a15.72415,15.72415,0,0,1-1.47559,2.35157,17.55464,17.55464,0,0,1-1.59668,1.77636,1.28376,1.28376,0,0,1-.91211.43164.78918.78918,0,0,1-.624-.27539,1.01056,1.01056,0,0,1-.23926-.68457,1.36633,1.36633,0,0,1,.33594-.88769l.31152-.38379a31.06356,31.06356,0,0,0,1.99219-2.68848q.40722-.69581.96-1.86035.55224-1.16308,1.08008-2.41113a1.84637,1.84637,0,0,1,1.8955-1.05664,2.52057,2.52057,0,0,1,.93653.12011.4.4,0,0,1,.26367.38379,1.773,1.773,0,0,1-.0957.45606,3.5201,3.5201,0,0,1-.26367.624,3.42531,3.42531,0,0,0-.43262,1.46387,1.5975,1.5975,0,0,0,.252.792,8.89777,8.89777,0,0,0,.78027,1.08008,15.16977,15.16977,0,0,1,1.16407,1.7168,3.1179,3.1179,0,0,1,.3955,1.54785,6.42541,6.42541,0,0,1-.04785.67187,7.65888,7.65888,0,0,0,2.76075-2.42383.83822.83822,0,0,1,.64746-.33593.55527.55527,0,0,1,.49218.28711,1.48872,1.48872,0,0,1,.17969.792,2.32642,2.32642,0,0,1-.45605,1.48828,7.31493,7.31493,0,0,1-2.292,2.02832,6.5166,6.5166,0,0,1-2.69921.58789,3.4094,3.4094,0,0,1-2.28028.81641A2.81865,2.81865,0,0,1,366.523,151.99316Z"/><path class="cls-2" d="M378.17529,143.0166q-.04833,1.20117-.04785,1.87207a15.65272,15.65272,0,0,0,.17969,2.7002,2.61919,2.61919,0,0,0,.59961,1.3916,1.573,1.573,0,0,0,1.16406.4209,2.27187,2.27187,0,0,0,.91211-.24024,3.8265,3.8265,0,0,0,.96-.624.79027.79027,0,0,1,.52832-.24023.53316.53316,0,0,1,.46777.32421,1.58089,1.58089,0,0,1,.17969.78028,2.2854,2.2854,0,0,1-.17969.88769,1.78014,1.78014,0,0,1-.54.71973,4.322,4.322,0,0,1-2.832,1.03223,3.54315,3.54315,0,0,1-3.33593-1.90821,10.2419,10.2419,0,0,1-1.05567-4.97949q0-1.05615.07129-2.13672H374.311a1.34546,1.34546,0,0,1-.97168-.26367,1.18475,1.18475,0,0,1-.252-.83984q0-1.34474,1.0791-1.34375h1.36817a23.40326,23.40326,0,0,1,1.248-4.82422,10.8988,10.8988,0,0,1,2.02833-3.48047,3.45832,3.45832,0,0,1,2.55566-1.2959,1.79737,1.79737,0,0,1,1.584.8877,4.02169,4.02169,0,0,1,.57618,2.23242,8.40788,8.40788,0,0,1-3.12012,6.48047h2.68847a.75823.75823,0,0,1,.55176.168.886.886,0,0,1,.168.624q0,1.65526-2.71191,1.65527Zm1.73926-8.84375a12.86115,12.86115,0,0,0-.83984,2.4961,33.76378,33.76378,0,0,0-.66016,3.54,8.18715,8.18715,0,0,0,2.124-2.748,6.66613,6.66613,0,0,0,.708-2.77246q0-1.415-.52734-1.416Q380.35888,133.27246,379.91455,134.17285Z"/><path class="cls-3" d="M405.00684,148.77734l2.08789,2.30371a1.729,1.729,0,0,1,.55175,1.2002,1.23867,1.23867,0,0,1-.47949.99609,1.93833,1.93833,0,0,1-1.27246.39551,2.093,2.093,0,0,1-1.67969-.67187l-2.01562-2.376a12.13263,12.13263,0,0,1-5.42432,1.416,8.682,8.682,0,0,1-3.36035-.60059,5.1203,5.1203,0,0,1-2.21973-1.65527,3.86317,3.86317,0,0,1-.78027-2.35254,5.51344,5.51344,0,0,1,1.0918-3.27539,11.81535,11.81535,0,0,1,3.56445-3.0127,9.61587,9.61587,0,0,1-1.39258-4.4873,6.2571,6.2571,0,0,1,.72071-3.04785,5.06338,5.06338,0,0,1,2.0039-2.04,5.9009,5.9009,0,0,1,2.93946-.72071,4.3321,4.3321,0,0,1,3.27685,1.21192,4.60454,4.60454,0,0,1,1.16406,3.32422,5.89365,5.89365,0,0,1-1.0205,3.2998,11.55736,11.55736,0,0,1-3.61182,3.15625q1.53516,2.0874,4.05615,4.91992a22.22355,22.22355,0,0,0,3.14356-3.57617,1.48146,1.48146,0,0,1,.624-.54,2.24623,2.24623,0,0,1,.88867-.15527q1.39161,0,1.3916.792a2.78439,2.78439,0,0,1-.52832,1.34375A18.34854,18.34854,0,0,1,405.00684,148.77734Zm-4.51221-.19238q-2.54443-3.04835-4.00781-5.208-2.7129,1.77686-2.71192,3.69629a2.00008,2.00008,0,0,0,.83985,1.71582,3.83816,3.83816,0,0,0,2.30371.61231A8.18422,8.18422,0,0,0,400.49463,148.585Zm-3.0957-14.36426a3.40483,3.40483,0,0,0-.64844,2.124,6.87569,6.87569,0,0,0,1.00781,3.3125,7.63189,7.63189,0,0,0,2.54395-2.13672,4.0472,4.0472,0,0,0,.67187-2.25586,1.99957,1.99957,0,0,0-.45605-1.3916,1.72,1.72,0,0,0-1.34375-.50391A2.10938,2.10938,0,0,0,397.39893,134.2207Z"/><path class="cls-2" d="M434.83887,147.40918a.64568.64568,0,0,1,.57617.28809,1.31394,1.31394,0,0,1,.19238.74316,2.09937,2.09937,0,0,1-.34863,1.22461,2.99818,2.99818,0,0,1-1.1875.91211,14.54872,14.54872,0,0,1-3.67188,1.06738,25.59794,25.59794,0,0,1-4.44043.39649,16.10193,16.10193,0,0,1-5.06347-.68457,6.51265,6.51265,0,0,1-3.03613-1.88379,4.13288,4.13288,0,0,1-.9961-2.71192,5.01538,5.01538,0,0,1,1.332-3.51562,7.71907,7.71907,0,0,1,3.92383-2.10059,3.94,3.94,0,0,1-2.17187-1.43945,3.80516,3.80516,0,0,1-.75586-2.30371,4.68636,4.68636,0,0,1,1.09179-3.06055,6.9812,6.9812,0,0,1,2.93946-2.05176,11.0738,11.0738,0,0,1,4.05664-.71972,6.684,6.684,0,0,1,4.46386,1.2832,4.18761,4.18761,0,0,1,1.48829,3.32422,4.48289,4.48289,0,0,1-.51661,2.292,1.62468,1.62468,0,0,1-1.47558.876,1.66939,1.66939,0,0,1-1.05567-.29981,1.07043,1.07043,0,0,1-.38476-.90039,3.67836,3.67836,0,0,1,.12012-.88769,8.76367,8.76367,0,0,0,.12011-1.08008,1.74288,1.74288,0,0,0-.64746-1.4043,3.3965,3.3965,0,0,0-2.16015-.54,5.55439,5.55439,0,0,0-3.26465.86426,2.71054,2.71054,0,0,0-1.22364,2.32812,2.2742,2.2742,0,0,0,.92383,1.86036,5.1799,5.1799,0,0,0,3.01172.80371,1.10691,1.10691,0,0,1,.74414.24023.98964.98964,0,0,1,.21582.71973q0,1.58349-1.43945,1.6084a9.94722,9.94722,0,0,0-3.29981.55175,4.19113,4.19113,0,0,0-1.89648,1.28418,2.72255,2.72255,0,0,0-.58789,1.668,2.41705,2.41705,0,0,0,1.39258,2.24414,9.69742,9.69742,0,0,0,4.415.75586,20.4871,20.4871,0,0,0,4.21289-.46777,20.82555,20.82555,0,0,0,3.80371-1.14063A1.6916,1.6916,0,0,1,434.83887,147.40918Z"/><path class="cls-2" d="M451.49512,146.209q0,1.92042-3.07227,1.91993-.12012,0-1.34375-.07227a27.36792,27.36792,0,0,1,.41992,2.89258q.15528,1.62012.15625,3.22754a7.37569,7.37569,0,0,1-.876,3.96,2.59764,2.59764,0,0,1-2.24414,1.36816q-1.72852,0-2.46-2.44824a27.6763,27.6763,0,0,1-.73243-7.3916q0-1.27149.07227-2.56836a6.85169,6.85169,0,0,1-.69629.02441c-.43164,0-.78418.00782-1.05566.02344q.24023,1.77686.37207,3.4082.13183,1.63331.13183,3.624a7.37569,7.37569,0,0,1-.876,3.96,2.59652,2.59652,0,0,1-2.24414,1.36816q-1.72852,0-2.46-2.44824a27.6849,27.6849,0,0,1-.73144-7.3916,48.88015,48.88015,0,0,1,.92383-9.37207,28.05729,28.05729,0,0,1,2.58008-7.83594q1.65527-3.09667,3.74316-3.0957a1.93759,1.93759,0,0,1,1.69238.89941,4.57077,4.57077,0,0,1,.61231,2.58008,14.67466,14.67466,0,0,1-1.4043,5.82031,22.71213,22.71213,0,0,1-4.95605,6.73145,40.48193,40.48193,0,0,0-.21583,4.10449q0,2.47266.168,5.07617.167,2.603.55176,2.60352.36036,0,.57617-.59961a6.04439,6.04439,0,0,0,.21582-1.89649q0-2.35254-.17968-4.16406a26.96458,26.96458,0,0,0-.41993-2.916,1.95187,1.95187,0,0,1-.04785-.50391,2.10123,2.10123,0,0,1,.82813-1.7041,3.47934,3.47934,0,0,1,2.19531-.69531h.91211a43.75983,43.75983,0,0,1,1.5-7.5,19.931,19.931,0,0,1,2.54394-5.67676q1.5-2.15919,3.22852-2.15918a1.98275,1.98275,0,0,1,1.76367,1.00781,5.04117,5.04117,0,0,1,.63574,2.71191,16.46337,16.46337,0,0,1-.792,4.72754,18.05278,18.05278,0,0,1-2.33984,4.90821,10.45016,10.45016,0,0,1-3.6836,3.44433,32.02154,32.02154,0,0,0-.168,3.33594q0,2.47266.168,5.07617.167,2.603.55176,2.60352c.24024,0,.43164-.2002.57617-.59961a6.07377,6.07377,0,0,0,.21582-1.89649,31.98091,31.98091,0,0,0-.19238-3.57617q-.19189-1.70361-.40722-2.7832a2.25731,2.25731,0,0,1-.04883-.52832,2.28982,2.28982,0,0,1,.67285-1.668,2.09582,2.09582,0,0,1,1.53515-.68457q.81592,0,1.5-.05957c.45606-.04.748-.06738.876-.084q.81592-.09522,1.05664-.09571Q451.49415,145.20117,451.49512,146.209Zm-11.916-13.00781a28.23883,28.23883,0,0,0-1.16406,3.8877q-.57568,2.42432-.98438,5.16015a15.45318,15.45318,0,0,0,2.74805-4.69238,13.5357,13.5357,0,0,0,.92383-4.5957,2.26464,2.26464,0,0,0-.14356-.91211q-.14355-.312-.36035-.31153Q440.16651,131.7373,439.5791,133.20117Zm7.65625.21582a32.1915,32.1915,0,0,0-1.34473,4.3916q-.65918,2.7129-1.09179,5.61621a8.85988,8.85988,0,0,0,2.3164-2.87988,16.03495,16.03495,0,0,0,1.416-3.76758,15.612,15.612,0,0,0,.46777-3.57617q0-1.46337-.59961-1.46387Q447.91895,131.7373,447.23535,133.417Z"/><path class="cls-2" d="M462.3916,144.86523a1.66707,1.66707,0,0,1,.168.792q0,1.15135-.69629,1.36718a10.88873,10.88873,0,0,1-3.168.57618,5.98892,5.98892,0,0,1-1.7998,3.22851,4.431,4.431,0,0,1-3.04785,1.21192,4.25224,4.25224,0,0,1-2.46-.69629,4.41307,4.41307,0,0,1-1.54786-1.84766,5.91084,5.91084,0,0,1-.52832-2.49609,7.31881,7.31881,0,0,1,.69629-3.252,5.46477,5.46477,0,0,1,1.91992-2.23242,4.83966,4.83966,0,0,1,2.71192-.80371,3.73584,3.73584,0,0,1,2.93945,1.25977,5.39542,5.39542,0,0,1,1.3086,3.10839,14.49756,14.49756,0,0,0,2.6875-.48046,1.44981,1.44981,0,0,1,.33593-.04786A.52507.52507,0,0,1,462.3916,144.86523Zm-7.02051,4.00782a3.47068,3.47068,0,0,0,.75684-1.79981,3.31993,3.31993,0,0,1-1.14063-1.32031,3.91254,3.91254,0,0,1-.3955-1.72852,4.17332,4.17332,0,0,1,.07129-.76757H454.544a1.88578,1.88578,0,0,0-1.59668.92382,4.55854,4.55854,0,0,0-.63575,2.6045,3.34882,3.34882,0,0,0,.51563,2.01562,1.48907,1.48907,0,0,0,1.21191.69629A1.73949,1.73949,0,0,0,455.37109,148.87305Z"/><path class="cls-2" d="M471.09082,144.39648a1.25757,1.25757,0,0,1,.37207.92481,1.80509,1.80509,0,0,1-.14453.67187,4.05269,4.05269,0,0,1-1.0791,1.48731,2.30082,2.30082,0,0,1-1.53614.60058,1.533,1.533,0,0,1-1.14062-.48046,1.77746,1.77746,0,0,1-.46777-1.2959q0-.45556.04785-.9834a5.04038,5.04038,0,0,0,.04785-.52832.42467.42467,0,0,0-.084-.28809.2624.2624,0,0,0-.20411-.0957q-.33544,0-.91113.80371a11.74057,11.74057,0,0,0-1.15234,2.124,17.2968,17.2968,0,0,0-.93653,2.78418,3.80545,3.80545,0,0,1-.59961,1.53614,1.39951,1.39951,0,0,1-1.10351.38379,1.31161,1.31161,0,0,1-1.28418-.96,9.19677,9.19677,0,0,1-.37207-3.07226,19.54963,19.54963,0,0,1,.88769-5.92774,1.8119,1.8119,0,0,1,.708-1.0205,2.49926,2.49926,0,0,1,1.37988-.32325,1.36275,1.36275,0,0,1,.67188.11915.49748.49748,0,0,1,.19238.45605,9.12241,9.12241,0,0,1-.36035,1.72852q-.24024.95946-.38379,1.67968a17.44244,17.44244,0,0,0-.24023,1.77637,13.65639,13.65639,0,0,1,1.77636-3.36035,7.05107,7.05107,0,0,1,1.91993-1.84766,3.41643,3.41643,0,0,1,1.7041-.55176,1.398,1.398,0,0,1,1.06836.39551,1.64521,1.64521,0,0,1,.37207,1.16407,10.50713,10.50713,0,0,1-.26465,1.72753h.21582A1.22972,1.22972,0,0,1,471.09082,144.39648Z"/><path class="cls-2" d="M483.57031,146.85645a1.48828,1.48828,0,0,1,.18067.792,2.20722,2.20722,0,0,1-.45606,1.48828,10.21483,10.21483,0,0,1-2.25586,2.08789,4.94688,4.94688,0,0,1-2.80859.81641q-4.89551,0-4.89551-6.8877,0-1.05615.07129-2.13672h-.93555a1.34548,1.34548,0,0,1-.97168-.26367,1.18475,1.18475,0,0,1-.25195-.83984q0-1.34474,1.0791-1.34375h1.36817a23.40326,23.40326,0,0,1,1.248-4.82422,10.899,10.899,0,0,1,2.02832-3.48047,3.45836,3.45836,0,0,1,2.55567-1.2959,1.79737,1.79737,0,0,1,1.584.8877,4.02168,4.02168,0,0,1,.57617,2.23242,8.4079,8.4079,0,0,1-3.12011,6.48047h2.68847a.75823.75823,0,0,1,.55176.168.886.886,0,0,1,.168.624q0,1.65526-2.71191,1.65527H476.335q-.04835,1.20117-.04785,1.87207a7.4591,7.4591,0,0,0,.58789,3.50391,1.99625,1.99625,0,0,0,1.85938,1.00879,2.86491,2.86491,0,0,0,1.82421-.624,14.52313,14.52313,0,0,0,1.87207-1.87207.8415.8415,0,0,1,.64844-.33593A.55487.55487,0,0,1,483.57031,146.85645Zm-5.49609-12.6836a12.86047,12.86047,0,0,0-.83984,2.4961,33.76119,33.76119,0,0,0-.66016,3.54,8.18727,8.18727,0,0,0,2.124-2.748,6.66613,6.66613,0,0,0,.708-2.77246q0-1.415-.52734-1.416Q478.51855,133.27246,478.07422,134.17285Z"/><path class="cls-2" d="M491.39453,146.85645a1.48872,1.48872,0,0,1,.17969.792,2.20717,2.20717,0,0,1-.45606,1.48828,10.34256,10.34256,0,0,1-2.24414,2.08789,4.806,4.806,0,0,1-2.748.81641,3.33109,3.33109,0,0,1-3.13184-1.91993,10.56881,10.56881,0,0,1-1.01953-4.96777,34.13634,34.13634,0,0,1,.75586-6.67285,22.66159,22.66159,0,0,1,2.23144-6.43164q1.47657-2.688,3.51661-2.6875a2.0355,2.0355,0,0,1,1.81152,1.06738,5.85157,5.85157,0,0,1,.66016,3.06055,17.48325,17.48325,0,0,1-1.584,6.624,36.68823,36.68823,0,0,1-4.2959,7.46387,2.77422,2.77422,0,0,0,.55176,1.40332,1.30044,1.30044,0,0,0,1.00781.4209,2.78293,2.78293,0,0,0,1.72852-.56446,13.131,13.131,0,0,0,1.89551-1.93164.84147.84147,0,0,1,.64843-.33593A.55528.55528,0,0,1,491.39453,146.85645Zm-4.69238-13.12793a32.74922,32.74922,0,0,0-1.22363,4.94433,35.75652,35.75652,0,0,0-.57618,5.66406,30.94291,30.94291,0,0,0,2.71192-5.62793,15.42857,15.42857,0,0,0,1.00781-5.14843q0-1.82373-.67187-1.82325Q487.39794,131.7373,486.70215,133.72852Z"/><path class="cls-2" d="M500.82617,146.85645a1.48828,1.48828,0,0,1,.18067.792,2.20722,2.20722,0,0,1-.45606,1.48828,8.78522,8.78522,0,0,1-2.50781,1.99219,6.95517,6.95517,0,0,1-3.46875.91211,5.3437,5.3437,0,0,1-3.91211-1.36817,5.011,5.011,0,0,1-1.3916-3.74414,6.93544,6.93544,0,0,1,.69629-3.084,5.69653,5.69653,0,0,1,1.93164-2.26758,4.85473,4.85473,0,0,1,2.7959-.83985,3.04406,3.04406,0,0,1,2.23242.82715,3.01186,3.01186,0,0,1,.83984,2.24414,3.88149,3.88149,0,0,1-1.18848,2.84473,8.58881,8.58881,0,0,1-4.01953,1.88379,2.35578,2.35578,0,0,0,2.28028,1.10351,5.25335,5.25335,0,0,0,2.46-.75585,8.1284,8.1284,0,0,0,2.38769-1.9795.8415.8415,0,0,1,.64844-.33593A.55488.55488,0,0,1,500.82617,146.85645Zm-8.04-2.73536a4.81777,4.81777,0,0,0-.61133,2.4961v.04785a5.4468,5.4468,0,0,0,2.23145-1.00781,1.98165,1.98165,0,0,0,.81641-1.56055,1.042,1.042,0,0,0-.252-.73145.87973.87973,0,0,0-.68457-.27636A1.76051,1.76051,0,0,0,492.78613,144.12109Z"/><path class="cls-2" d="M501.61816,151.99316a1.69411,1.69411,0,0,1-.66015-1.29589,1.477,1.477,0,0,1,.45605-1.08008,1.82285,1.82285,0,0,1,1.34375-.45606,5.26142,5.26142,0,0,1,.73242.05957c.2793.04.49219.06836.63575.084a3.0825,3.0825,0,0,0-.27539-1.17578,5.90742,5.90742,0,0,0-.63672-1.06836q-.38379-.51562-.71973-.89942a15.72253,15.72253,0,0,1-1.47559,2.35157,17.55454,17.55454,0,0,1-1.59667,1.77636,1.28376,1.28376,0,0,1-.91211.43164.78921.78921,0,0,1-.624-.27539,1.01056,1.01056,0,0,1-.23926-.68457,1.36633,1.36633,0,0,1,.33594-.88769l.31153-.38379a31.06309,31.06309,0,0,0,1.99218-2.68848q.40723-.69581.96-1.86035.55226-1.16308,1.08008-2.41113a1.84639,1.84639,0,0,1,1.89551-1.05664,2.52051,2.52051,0,0,1,.93652.12011.40005.40005,0,0,1,.26368.38379,1.77264,1.77264,0,0,1-.09571.45606,3.51861,3.51861,0,0,1-.26367.624,3.42531,3.42531,0,0,0-.43262,1.46387,1.59753,1.59753,0,0,0,.252.792,8.89556,8.89556,0,0,0,.78027,1.08008,15.16949,15.16949,0,0,1,1.16406,1.7168,3.1179,3.1179,0,0,1,.39551,1.54785,6.42818,6.42818,0,0,1-.04785.67187,7.65879,7.65879,0,0,0,2.76074-2.42383.83825.83825,0,0,1,.64746-.33593.55528.55528,0,0,1,.49219.28711,1.48872,1.48872,0,0,1,.17969.792,2.32642,2.32642,0,0,1-.45606,1.48828,7.31481,7.31481,0,0,1-2.292,2.02832,6.51665,6.51665,0,0,1-2.69922.58789,3.40937,3.40937,0,0,1-2.28027.81641A2.8187,2.8187,0,0,1,501.61816,151.99316Z"/><path class="cls-2" d="M511.86523,151.99316a1.69411,1.69411,0,0,1-.66015-1.29589,1.477,1.477,0,0,1,.45605-1.08008,1.82285,1.82285,0,0,1,1.34375-.45606,5.26142,5.26142,0,0,1,.73242.05957c.2793.04.49219.06836.63575.084a3.0825,3.0825,0,0,0-.27539-1.17578,5.90742,5.90742,0,0,0-.63672-1.06836q-.38379-.51562-.71973-.89942a15.72253,15.72253,0,0,1-1.47559,2.35157,17.55454,17.55454,0,0,1-1.59667,1.77636,1.28376,1.28376,0,0,1-.91211.43164.78921.78921,0,0,1-.624-.27539,1.01056,1.01056,0,0,1-.23926-.68457,1.36633,1.36633,0,0,1,.33594-.88769l.31153-.38379a31.06309,31.06309,0,0,0,1.99218-2.68848,15.40149,15.40149,0,0,0,.876-1.65625q.44385-.95947,1.16406-2.61523a1.84639,1.84639,0,0,1,1.89551-1.05664,2.52051,2.52051,0,0,1,.93652.12011.40005.40005,0,0,1,.26368.38379,1.77264,1.77264,0,0,1-.09571.45606,3.51861,3.51861,0,0,1-.26367.624,3.42531,3.42531,0,0,0-.43262,1.46387,1.59753,1.59753,0,0,0,.252.792,8.89666,8.89666,0,0,0,.78027,1.08008,15.16949,15.16949,0,0,1,1.16406,1.7168,3.1179,3.1179,0,0,1,.39551,1.54785,4.06812,4.06812,0,0,1-.46777,1.90722,3.802,3.802,0,0,1-1.30762,1.45215,3.41786,3.41786,0,0,1-1.91992.55274A2.8187,2.8187,0,0,1,511.86523,151.99316Z"/><path class="cls-3" d="M529.87793,150.99707a7.51807,7.51807,0,0,1-3.24023-2.96387,8.65136,8.65136,0,0,1-1.12793-4.46386,14.14137,14.14137,0,0,1,1.332-6.26465,10.34515,10.34515,0,0,1,3.6123-4.23535,9.01318,9.01318,0,0,1,5.06348-1.5,5.36181,5.36181,0,0,1,3.93652,1.332,4.73022,4.73022,0,0,1,1.34375,3.51562,4.6504,4.6504,0,0,1-.5166,2.35156,1.75916,1.75916,0,0,1-2.53125.57618,1.10412,1.10412,0,0,1-.38477-.91211,5.76737,5.76737,0,0,1,.09668-.792,6.20127,6.20127,0,0,0,.14356-1.15136q0-2.18409-2.32813-2.18457a5.11515,5.11515,0,0,0-3.02343,1.03222,7.218,7.218,0,0,0-2.32813,3.03614,11.6965,11.6965,0,0,0-.88769,4.76367,5.94151,5.94151,0,0,0,1.60742,4.45215,6.53678,6.53678,0,0,0,4.752,1.57226,13.04233,13.04233,0,0,0,3.15625-.39648,24.517,24.517,0,0,0,3.54-1.21192,1.6916,1.6916,0,0,1,.59961-.14355.64568.64568,0,0,1,.57617.28809,1.31394,1.31394,0,0,1,.19238.74316,2.28233,2.28233,0,0,1-1.584,2.16016,16.53534,16.53534,0,0,1-3.54,1.09277,18.82915,18.82915,0,0,1-3.49219.34766A11.08071,11.08071,0,0,1,529.87793,150.99707Z"/><path class="cls-3" d="M543.17383,150.90137a4.08177,4.08177,0,0,1-1.91992-3.708,3.68554,3.68554,0,0,1,.45605-2.0166,1.5029,1.5029,0,0,1,1.34375-.69629,1.6046,1.6046,0,0,1,1.05567.33691,1.06629,1.06629,0,0,1,.4082.86328,4.32634,4.32634,0,0,1-.07227.83985,2.56981,2.56981,0,0,1-.03613.33594,3.47942,3.47942,0,0,0-.03613.50488,1.70541,1.70541,0,0,0,1.09277,1.60742,7.1643,7.1643,0,0,0,3.05957.52832,5.93052,5.93052,0,0,0,3.19238-.73242,2.30308,2.30308,0,0,0,1.15137-2.05176,2.03332,2.03332,0,0,0-.52734-1.4043,4.38706,4.38706,0,0,0-1.32032-.98339q-.79248-.397-2.23242-.97266a25.01245,25.01245,0,0,1-3.01172-1.36719,6.25975,6.25975,0,0,1-1.99218-1.76465,4.52471,4.52471,0,0,1-.82813-2.77148,5.29243,5.29243,0,0,1,.92481-3.07227,5.978,5.978,0,0,1,2.66406-2.08789,10.3448,10.3448,0,0,1,4.0918-.74414,9.62382,9.62382,0,0,1,3.21582.51563,5.21812,5.21812,0,0,1,2.33984,1.57226,3.92555,3.92555,0,0,1,.876,2.5918,4.5526,4.5526,0,0,1-.45606,2.28027,1.46769,1.46769,0,0,1-1.34375.76758,1.48373,1.48373,0,0,1-1.04394-.38379,1.194,1.194,0,0,1-.41993-.91211,4.493,4.493,0,0,1,.07227-.83984q.07178-.71923.07129-.91211a1.66578,1.66578,0,0,0-.9834-1.53613,5.13959,5.13959,0,0,0-2.44824-.52735,5.52561,5.52561,0,0,0-3.15625.75586,2.4344,2.4344,0,0,0-1.0918,2.124,2.28878,2.28878,0,0,0,.56445,1.55957,4.64245,4.64245,0,0,0,1.40332,1.08007q.84082.43214,2.35254,1.03223a30.48764,30.48764,0,0,1,2.92774,1.34375,5.8453,5.8453,0,0,1,1.88379,1.63184,4.10166,4.10166,0,0,1,.78027,2.54394,5.02,5.02,0,0,1-2.14844,4.35645,9.74072,9.74072,0,0,1-5.748,1.52441A9.47945,9.47945,0,0,1,543.17383,150.90137Z"/><path class="cls-3" d="M559.80566,150.90137a4.08179,4.08179,0,0,1-1.91992-3.708,3.68553,3.68553,0,0,1,.45606-2.0166,1.50289,1.50289,0,0,1,1.34375-.69629,1.60456,1.60456,0,0,1,1.05566.33691,1.06629,1.06629,0,0,1,.4082.86328,4.32641,4.32641,0,0,1-.07226.83985,2.56981,2.56981,0,0,1-.03613.33594,3.47939,3.47939,0,0,0-.03614.50488,1.70542,1.70542,0,0,0,1.09278,1.60742,7.1643,7.1643,0,0,0,3.05957.52832,5.93057,5.93057,0,0,0,3.19238-.73242,2.30308,2.30308,0,0,0,1.15137-2.05176,2.03328,2.03328,0,0,0-.52735-1.4043,4.387,4.387,0,0,0-1.32031-.98339q-.79248-.397-2.23242-.97266a25.01172,25.01172,0,0,1-3.01172-1.36719,6.25979,6.25979,0,0,1-1.99219-1.76465,4.5247,4.5247,0,0,1-.82812-2.77148,5.29249,5.29249,0,0,1,.9248-3.07227,5.97807,5.97807,0,0,1,2.66406-2.08789,10.3448,10.3448,0,0,1,4.0918-.74414,9.62374,9.62374,0,0,1,3.21582.51563,5.21815,5.21815,0,0,1,2.33985,1.57226,3.92554,3.92554,0,0,1,.876,2.5918,4.55261,4.55261,0,0,1-.45605,2.28027,1.4677,1.4677,0,0,1-1.34375.76758,1.48375,1.48375,0,0,1-1.04395-.38379,1.19405,1.19405,0,0,1-.41992-.91211,4.493,4.493,0,0,1,.07227-.83984q.07178-.71923.07128-.91211a1.66577,1.66577,0,0,0-.98339-1.53613,5.13961,5.13961,0,0,0-2.44825-.52735,5.52565,5.52565,0,0,0-3.15625.75586,2.43441,2.43441,0,0,0-1.09179,2.124,2.28878,2.28878,0,0,0,.56445,1.55957,4.64245,4.64245,0,0,0,1.40332,1.08007q.84082.43214,2.35254,1.03223a30.48616,30.48616,0,0,1,2.92773,1.34375,5.8452,5.8452,0,0,1,1.88379,1.63184,4.10166,4.10166,0,0,1,.78028,2.54394,5.02,5.02,0,0,1-2.14844,4.35645,9.74075,9.74075,0,0,1-5.748,1.52441A9.47947,9.47947,0,0,1,559.80566,150.90137Z"/><path class="cls-3" d="M594.52051,146.85645a1.48882,1.48882,0,0,1,.17969.792,2.20722,2.20722,0,0,1-.45606,1.48828,10.58972,10.58972,0,0,1-2.21973,2.08789,4.65522,4.65522,0,0,1-2.70019.81641,2.60147,2.60147,0,0,1-2.06348-.91211,5.3413,5.3413,0,0,1-2.85644.91211,29.29616,29.29616,0,0,1-1.416,7.74023q-1.1045,3.10694-3.23926,3.10742a2.14888,2.14888,0,0,1-1.9209-.93555,4.64253,4.64253,0,0,1-.624-2.59179,17.17774,17.17774,0,0,1,1.08008-5.48438,37.5493,37.5493,0,0,1,3.33594-6.90039q0-3.50391-.04785-4.87207a1.22746,1.22746,0,0,1,.55273-1.10351,2.43074,2.43074,0,0,1,1.43945-.40821,1.08479,1.08479,0,0,1,.73243.20411,1.14114,1.14114,0,0,1,.25195.80371q0,.60058.02344.88867a5.46634,5.46634,0,0,1,1.51269-1.37988,3.16632,3.16632,0,0,1,1.584-.4209,2.67179,2.67179,0,0,1,2.19531,1.08007,4.44116,4.44116,0,0,1,.85254,2.832,7.642,7.642,0,0,1-.40821,2.47265,8.10521,8.10521,0,0,1-1.12793,2.1836,3.18428,3.18428,0,0,0,.83985.14453,2.38687,2.38687,0,0,0,1.51172-.57617,14.651,14.651,0,0,0,1.84863-1.91993.83825.83825,0,0,1,.64746-.33593A.55528.55528,0,0,1,594.52051,146.85645Zm-13.5,10.86035a58.64761,58.64761,0,0,0,.55176-7.01953,35.34544,35.34544,0,0,0-1.63184,4.584,14.33946,14.33946,0,0,0-.59961,3.67187,3.01717,3.01717,0,0,0,.17969,1.17579c.12011.27148.26074.4082.41992.4082Q580.58789,160.53711,581.02051,157.7168Zm5.09961-8.92774a5.5064,5.5064,0,0,0,1.16406-1.87207,6.42611,6.42611,0,0,0,.43262-2.33984,1.76249,1.76249,0,0,0-.28809-1.0918.92335.92335,0,0,0-.76855-.37207q-.8628,0-2.08789,1.82324-.02344,1.05762-.02344,3.09668,0,1.103-.02442,1.7041A3.18218,3.18218,0,0,0,586.12012,148.78906Z"/><path class="cls-3" d="M593.17676,151.08105a9.19677,9.19677,0,0,1-.37207-3.07226,19.54963,19.54963,0,0,1,.88769-5.92774,1.81185,1.81185,0,0,1,.708-1.0205,2.49926,2.49926,0,0,1,1.37988-.32325,1.36275,1.36275,0,0,1,.67188.11915.49748.49748,0,0,1,.19238.45605,9.12326,9.12326,0,0,1-.36035,1.72852q-.24024.95946-.38379,1.67968a17.44244,17.44244,0,0,0-.24023,1.77637,13.65639,13.65639,0,0,1,1.77636-3.36035,6.96587,6.96587,0,0,1,1.93164-1.84766,3.51045,3.51045,0,0,1,1.74024-.55176,1.37892,1.37892,0,0,1,1.56055,1.55958,12.01069,12.01069,0,0,1-.2168,1.51171,8.84785,8.84785,0,0,0-.19141,1.2002q0,.84083.59961.83984a2.88587,2.88587,0,0,0,1.72852-1.05566.917.917,0,0,1,.64746-.3125.56084.56084,0,0,1,.49219.27637,1.32487,1.32487,0,0,1,.17968.73242,1.9381,1.9381,0,0,1-.47949,1.3916,6.52456,6.52456,0,0,1-1.57226,1.18848,3.91718,3.91718,0,0,1-1.90821.49121,2.6478,2.6478,0,0,1-1.93164-.64746,2.34208,2.34208,0,0,1-.66015-1.752,3.68185,3.68185,0,0,1,.07226-.7207c.03125-.31934.04785-.53516.04785-.64746q0-.38379-.26367-.38379-.36035,0-.94824.80371a11.24618,11.24618,0,0,0-1.16406,2.124,17.2968,17.2968,0,0,0-.93653,2.78418,3.74361,3.74361,0,0,1-.61133,1.52344,1.38,1.38,0,0,1-1.09179.39649A1.3116,1.3116,0,0,1,593.17676,151.08105Z"/><path class="cls-3" d="M614.87207,146.85645a1.48828,1.48828,0,0,1,.18066.792,2.20722,2.20722,0,0,1-.45605,1.48828,8.78522,8.78522,0,0,1-2.50781,1.99219,6.95517,6.95517,0,0,1-3.46875.91211,5.3437,5.3437,0,0,1-3.91211-1.36817,5.011,5.011,0,0,1-1.3916-3.74414,6.93544,6.93544,0,0,1,.69629-3.084,5.69653,5.69653,0,0,1,1.93164-2.26758,4.85469,4.85469,0,0,1,2.79589-.83985,3.04407,3.04407,0,0,1,2.23243.82715,3.01186,3.01186,0,0,1,.83984,2.24414,3.88149,3.88149,0,0,1-1.18848,2.84473,8.58881,8.58881,0,0,1-4.01953,1.88379,2.35578,2.35578,0,0,0,2.28028,1.10351,5.25335,5.25335,0,0,0,2.46-.75585,8.1284,8.1284,0,0,0,2.38769-1.9795.84147.84147,0,0,1,.64844-.33593A.55488.55488,0,0,1,614.87207,146.85645Zm-8.04-2.73536a4.81767,4.81767,0,0,0-.61133,2.4961v.04785a5.4468,5.4468,0,0,0,2.23145-1.00781,1.98167,1.98167,0,0,0,.8164-1.56055,1.042,1.042,0,0,0-.25195-.73145.87973.87973,0,0,0-.68457-.27636A1.76049,1.76049,0,0,0,606.832,144.12109Z"/><path class="cls-3" d="M626.89551,146.85645a1.48882,1.48882,0,0,1,.17969.792,2.20722,2.20722,0,0,1-.45606,1.48828,10.58972,10.58972,0,0,1-2.21973,2.08789,4.65522,4.65522,0,0,1-2.70019.81641,2.60147,2.60147,0,0,1-2.06348-.91211,5.3413,5.3413,0,0,1-2.85644.91211,29.29616,29.29616,0,0,1-1.416,7.74023q-1.1045,3.10694-3.23926,3.10742a2.14888,2.14888,0,0,1-1.9209-.93555,4.64253,4.64253,0,0,1-.624-2.59179,17.17774,17.17774,0,0,1,1.08008-5.48438,37.5493,37.5493,0,0,1,3.33594-6.90039q0-3.50391-.04785-4.87207A1.22746,1.22746,0,0,1,614.5,141.001a2.43074,2.43074,0,0,1,1.43945-.40821,1.08479,1.08479,0,0,1,.73243.20411,1.14114,1.14114,0,0,1,.25195.80371q0,.60058.02344.88867a5.46634,5.46634,0,0,1,1.51269-1.37988,3.16632,3.16632,0,0,1,1.584-.4209,2.67179,2.67179,0,0,1,2.19531,1.08007,4.44116,4.44116,0,0,1,.85254,2.832,7.642,7.642,0,0,1-.40821,2.47265,8.10521,8.10521,0,0,1-1.12793,2.1836,3.18428,3.18428,0,0,0,.83985.14453,2.38687,2.38687,0,0,0,1.51172-.57617,14.651,14.651,0,0,0,1.84863-1.91993.83825.83825,0,0,1,.64746-.33593A.55528.55528,0,0,1,626.89551,146.85645Zm-13.5,10.86035a58.64761,58.64761,0,0,0,.55176-7.01953,35.34544,35.34544,0,0,0-1.63184,4.584,14.33946,14.33946,0,0,0-.59961,3.67187,3.01717,3.01717,0,0,0,.17969,1.17579c.12011.27148.26074.4082.41992.4082Q612.96289,160.53711,613.39551,157.7168Zm5.09961-8.92774a5.5064,5.5064,0,0,0,1.16406-1.87207,6.42611,6.42611,0,0,0,.43262-2.33984,1.76249,1.76249,0,0,0-.28809-1.0918.92335.92335,0,0,0-.76855-.37207q-.8628,0-2.08789,1.82324-.02344,1.05762-.02344,3.09668,0,1.103-.02442,1.7041A3.18218,3.18218,0,0,0,618.49512,148.78906Z"/><path class="cls-3" d="M625.55176,151.08105a9.19677,9.19677,0,0,1-.37207-3.07226,19.54963,19.54963,0,0,1,.88769-5.92774,1.81185,1.81185,0,0,1,.708-1.0205,2.49926,2.49926,0,0,1,1.37988-.32325,1.36275,1.36275,0,0,1,.67188.11915.49748.49748,0,0,1,.19238.45605,9.12326,9.12326,0,0,1-.36035,1.72852q-.24024.95946-.38379,1.67968a17.44244,17.44244,0,0,0-.24023,1.77637,13.65639,13.65639,0,0,1,1.77636-3.36035,6.96587,6.96587,0,0,1,1.93164-1.84766,3.51045,3.51045,0,0,1,1.74024-.55176,1.37892,1.37892,0,0,1,1.56055,1.55958,12.01069,12.01069,0,0,1-.2168,1.51171,8.84785,8.84785,0,0,0-.19141,1.2002q0,.84083.59961.83984a2.88587,2.88587,0,0,0,1.72852-1.05566.917.917,0,0,1,.64746-.3125.56084.56084,0,0,1,.49219.27637,1.32487,1.32487,0,0,1,.17968.73242,1.9381,1.9381,0,0,1-.47949,1.3916,6.52456,6.52456,0,0,1-1.57226,1.18848,3.91718,3.91718,0,0,1-1.90821.49121,2.6478,2.6478,0,0,1-1.93164-.64746,2.34208,2.34208,0,0,1-.66015-1.752,3.68185,3.68185,0,0,1,.07226-.7207c.03125-.31934.04785-.53516.04785-.64746q0-.38379-.26367-.38379-.36035,0-.94824.80371a11.24618,11.24618,0,0,0-1.16406,2.124,17.2968,17.2968,0,0,0-.93653,2.78418,3.74361,3.74361,0,0,1-.61133,1.52344,1.38,1.38,0,0,1-1.09179.39649A1.3116,1.3116,0,0,1,625.55176,151.08105Z"/><path class="cls-3" d="M648.77148,144.86523a1.66707,1.66707,0,0,1,.168.792q0,1.15135-.69629,1.36718a10.88872,10.88872,0,0,1-3.168.57618,5.989,5.989,0,0,1-1.79981,3.22851,4.43093,4.43093,0,0,1-3.04785,1.21192,4.25226,4.25226,0,0,1-2.46-.69629,4.413,4.413,0,0,1-1.54785-1.84766,5.91084,5.91084,0,0,1-.52832-2.49609,7.31867,7.31867,0,0,1,.69629-3.252,5.46462,5.46462,0,0,1,1.91992-2.23242,4.83963,4.83963,0,0,1,2.71191-.80371,3.73584,3.73584,0,0,1,2.93945,1.25977,5.39542,5.39542,0,0,1,1.3086,3.10839,14.49756,14.49756,0,0,0,2.6875-.48046,1.44989,1.44989,0,0,1,.33594-.04786A.52506.52506,0,0,1,648.77148,144.86523Zm-7.0205,4.00782a3.47067,3.47067,0,0,0,.75683-1.79981,3.3199,3.3199,0,0,1-1.14062-1.32031,3.91255,3.91255,0,0,1-.39551-1.72852,4.17419,4.17419,0,0,1,.07129-.76757h-.11914a1.88579,1.88579,0,0,0-1.59668.92382,4.55854,4.55854,0,0,0-.63574,2.6045,3.34882,3.34882,0,0,0,.51562,2.01562,1.48907,1.48907,0,0,0,1.21192.69629A1.73952,1.73952,0,0,0,641.751,148.87305Z"/><path class="cls-3" d="M647.79883,150.709a4.80037,4.80037,0,0,1-1.3086-3.51562,7.22225,7.22225,0,0,1,.76856-3.4082,5.8421,5.8421,0,0,1,1.99219-2.25586,4.65033,4.65033,0,0,1,2.56738-.792,2.68055,2.68055,0,0,1,2.05273.7793,2.81515,2.81515,0,0,1,.73145,2.00391,3.104,3.104,0,0,1-.44434,1.7041,1.33241,1.33241,0,0,1-1.16308.69629,1.15672,1.15672,0,0,1-.73242-.21582.7186.7186,0,0,1-.27637-.60059,1.78486,1.78486,0,0,1,.04785-.38379c.03223-.14355.05664-.248.07227-.31152a2.1312,2.1312,0,0,0,.12011-.67188.67929.67929,0,0,0-.15625-.48046.577.577,0,0,0-.44336-.168,1.42863,1.42863,0,0,0-1.03222.49218,3.50064,3.50064,0,0,0-.76856,1.332,5.684,5.684,0,0,0-.28711,1.84765q0,2.78467,2.42383,2.78418a4.2843,4.2843,0,0,0,2.124-.66015,8.65635,8.65635,0,0,0,2.24414-1.9795.83825.83825,0,0,1,.64747-.33593.55527.55527,0,0,1,.49218.28711,1.48872,1.48872,0,0,1,.17969.792,2.32642,2.32642,0,0,1-.45605,1.48828,7.78431,7.78431,0,0,1-2.69922,2.14844,6.998,6.998,0,0,1-3.03614.75586A4.89736,4.89736,0,0,1,647.79883,150.709Z"/><path class="cls-3" d="M666.90234,146.85645a1.48828,1.48828,0,0,1,.18067.792,2.20722,2.20722,0,0,1-.45606,1.48828,8.78522,8.78522,0,0,1-2.50781,1.99219,6.95517,6.95517,0,0,1-3.46875.91211,5.34372,5.34372,0,0,1-3.91211-1.36817,5.011,5.011,0,0,1-1.3916-3.74414,6.93544,6.93544,0,0,1,.69629-3.084,5.69661,5.69661,0,0,1,1.93164-2.26758,4.85473,4.85473,0,0,1,2.7959-.83985,3.04406,3.04406,0,0,1,2.23242.82715,3.01186,3.01186,0,0,1,.83984,2.24414,3.88152,3.88152,0,0,1-1.18847,2.84473,8.58891,8.58891,0,0,1-4.01953,1.88379,2.35575,2.35575,0,0,0,2.28027,1.10351,5.25331,5.25331,0,0,0,2.46-.75585,8.12857,8.12857,0,0,0,2.3877-1.9795.84147.84147,0,0,1,.64843-.33593A.55487.55487,0,0,1,666.90234,146.85645Zm-8.04-2.73536a4.81777,4.81777,0,0,0-.61132,2.4961v.04785a5.44669,5.44669,0,0,0,2.23144-1.00781,1.98165,1.98165,0,0,0,.81641-1.56055,1.042,1.042,0,0,0-.25195-.73145.87975.87975,0,0,0-.68458-.27636A1.76051,1.76051,0,0,0,658.8623,144.12109Z"/><path class="cls-3" d="M667.69434,151.99316a1.69412,1.69412,0,0,1-.66016-1.29589,1.477,1.477,0,0,1,.45605-1.08008,1.82286,1.82286,0,0,1,1.34375-.45606,5.26167,5.26167,0,0,1,.73243.05957c.27929.04.49218.06836.63574.084a3.08231,3.08231,0,0,0-.27539-1.17578,5.90742,5.90742,0,0,0-.63672-1.06836q-.38379-.51562-.71973-.89942a15.72336,15.72336,0,0,1-1.47558,2.35157,17.55464,17.55464,0,0,1-1.59668,1.77636,1.28376,1.28376,0,0,1-.91211.43164.78921.78921,0,0,1-.624-.27539,1.01055,1.01055,0,0,1-.23925-.68457,1.36632,1.36632,0,0,1,.33593-.88769l.31153-.38379a31.06309,31.06309,0,0,0,1.99218-2.68848q.40723-.69581.96-1.86035.55224-1.16308,1.08007-2.41113a1.84639,1.84639,0,0,1,1.89551-1.05664,2.52061,2.52061,0,0,1,.93653.12011.4.4,0,0,1,.26367.38379,1.77264,1.77264,0,0,1-.09571.45606,3.51861,3.51861,0,0,1-.26367.624,3.42545,3.42545,0,0,0-.43262,1.46387,1.59753,1.59753,0,0,0,.252.792,8.89666,8.89666,0,0,0,.78027,1.08008,15.16949,15.16949,0,0,1,1.16406,1.7168,3.1178,3.1178,0,0,1,.39551,1.54785,6.42541,6.42541,0,0,1-.04785.67187,7.65879,7.65879,0,0,0,2.76074-2.42383.83825.83825,0,0,1,.64746-.33593.55528.55528,0,0,1,.49219.28711,1.48872,1.48872,0,0,1,.17969.792,2.32642,2.32642,0,0,1-.45606,1.48828,7.31481,7.31481,0,0,1-2.292,2.02832,6.51665,6.51665,0,0,1-2.69922.58789,3.40937,3.40937,0,0,1-2.28027.81641A2.81865,2.81865,0,0,1,667.69434,151.99316Z"/><path class="cls-3" d="M677.94238,151.99316a1.69411,1.69411,0,0,1-.66015-1.29589,1.477,1.477,0,0,1,.45605-1.08008,1.82283,1.82283,0,0,1,1.34375-.45606,5.26142,5.26142,0,0,1,.73242.05957c.2793.04.49219.06836.63575.084a3.08232,3.08232,0,0,0-.2754-1.17578,5.90678,5.90678,0,0,0-.63671-1.06836q-.38379-.51562-.71973-.89942a15.72253,15.72253,0,0,1-1.47559,2.35157,17.55344,17.55344,0,0,1-1.59668,1.77636,1.28372,1.28372,0,0,1-.91211.43164.78919.78919,0,0,1-.624-.27539,1.01056,1.01056,0,0,1-.23926-.68457,1.36633,1.36633,0,0,1,.33594-.88769l.31152-.38379a31.06144,31.06144,0,0,0,1.99219-2.68848q.40724-.69581.96-1.86035.55226-1.16308,1.08008-2.41113a1.84639,1.84639,0,0,1,1.89551-1.05664,2.52055,2.52055,0,0,1,.93652.12011.4.4,0,0,1,.26367.38379,1.77251,1.77251,0,0,1-.0957.45606,3.51861,3.51861,0,0,1-.26367.624,3.42531,3.42531,0,0,0-.43262,1.46387,1.59761,1.59761,0,0,0,.25195.792,8.89693,8.89693,0,0,0,.78028,1.08008,15.16949,15.16949,0,0,1,1.16406,1.7168,3.1179,3.1179,0,0,1,.39551,1.54785,6.42818,6.42818,0,0,1-.04785.67187,7.65879,7.65879,0,0,0,2.76074-2.42383.83825.83825,0,0,1,.64746-.33593.55528.55528,0,0,1,.49219.28711,1.48882,1.48882,0,0,1,.17968.792,2.32642,2.32642,0,0,1-.45605,1.48828,7.31491,7.31491,0,0,1-2.292,2.02832,6.51665,6.51665,0,0,1-2.69922.58789,3.40939,3.40939,0,0,1-2.28027.81641A2.81868,2.81868,0,0,1,677.94238,151.99316Z"/><path class="cls-3" d="M698.35449,144.86523a1.66707,1.66707,0,0,1,.168.792q0,1.15135-.69629,1.36718a10.88873,10.88873,0,0,1-3.168.57618,5.98892,5.98892,0,0,1-1.7998,3.22851,4.431,4.431,0,0,1-3.04785,1.21192,4.25224,4.25224,0,0,1-2.46-.69629,4.41307,4.41307,0,0,1-1.54786-1.84766,5.911,5.911,0,0,1-.52832-2.49609,7.31881,7.31881,0,0,1,.69629-3.252,5.46477,5.46477,0,0,1,1.91992-2.23242,4.83966,4.83966,0,0,1,2.71192-.80371,3.73584,3.73584,0,0,1,2.93945,1.25977,5.39542,5.39542,0,0,1,1.3086,3.10839,14.49756,14.49756,0,0,0,2.6875-.48046,1.44988,1.44988,0,0,1,.33593-.04786A.52507.52507,0,0,1,698.35449,144.86523Zm-7.02051,4.00782a3.47068,3.47068,0,0,0,.75684-1.79981,3.31982,3.31982,0,0,1-1.14062-1.32031,3.91242,3.91242,0,0,1-.39551-1.72852,4.17332,4.17332,0,0,1,.07129-.76757h-.11914a1.88578,1.88578,0,0,0-1.59668.92382,4.55854,4.55854,0,0,0-.63575,2.6045,3.34882,3.34882,0,0,0,.51563,2.01562,1.48907,1.48907,0,0,0,1.21191.69629A1.73949,1.73949,0,0,0,691.334,148.87305Z"/><path class="cls-3" d="M707.05371,144.39648a1.25757,1.25757,0,0,1,.37207.92481,1.80509,1.80509,0,0,1-.14453.67187,4.05258,4.05258,0,0,1-1.0791,1.48731,2.30082,2.30082,0,0,1-1.53613.60058,1.533,1.533,0,0,1-1.14063-.48046,1.77746,1.77746,0,0,1-.46777-1.2959q0-.45556.04785-.9834a5.03754,5.03754,0,0,0,.04785-.52832.42467.42467,0,0,0-.084-.28809.2624.2624,0,0,0-.20411-.0957q-.33544,0-.91113.80371a11.74057,11.74057,0,0,0-1.15234,2.124,17.2968,17.2968,0,0,0-.93653,2.78418,3.80545,3.80545,0,0,1-.59961,1.53614,1.3995,1.3995,0,0,1-1.10351.38379,1.31161,1.31161,0,0,1-1.28418-.96,9.19677,9.19677,0,0,1-.37207-3.07226,19.54963,19.54963,0,0,1,.88769-5.92774,1.8119,1.8119,0,0,1,.708-1.0205,2.49928,2.49928,0,0,1,1.37989-.32325,1.36274,1.36274,0,0,1,.67187.11915.49748.49748,0,0,1,.19238.45605,9.12241,9.12241,0,0,1-.36035,1.72852q-.24023.95946-.38379,1.67968a17.44244,17.44244,0,0,0-.24023,1.77637,13.65638,13.65638,0,0,1,1.77637-3.36035,7.05105,7.05105,0,0,1,1.91992-1.84766,3.41643,3.41643,0,0,1,1.7041-.55176,1.398,1.398,0,0,1,1.06836.39551,1.64521,1.64521,0,0,1,.37207,1.16407,10.50713,10.50713,0,0,1-.26465,1.72753h.21582A1.22972,1.22972,0,0,1,707.05371,144.39648Z"/><path class="cls-3" d="M707.918,151.46484a2.11861,2.11861,0,0,1-.54-1.51172,2.41408,2.41408,0,0,1,.6123-1.72851,2.65719,2.65719,0,0,1,3.31153-.13184,2.01275,2.01275,0,0,1,.54,1.52442,2.46167,2.46167,0,0,1-.624,1.76367,2.23027,2.23027,0,0,1-1.7041.66016A2.08452,2.08452,0,0,1,707.918,151.46484Z"/></svg>